<?xml version="1.0" encoding="UTF-8" standalone="no"?>
<svg
   xmlns:dc="http://purl.org/dc/elements/1.1/"
   xmlns:cc="http://creativecommons.org/ns#"
   xmlns:rdf="http://www.w3.org/1999/02/22-rdf-syntax-ns#"
   xmlns:svg="http://www.w3.org/2000/svg"
   xmlns="http://www.w3.org/2000/svg"
   xmlns:sodipodi="http://sodipodi.sourceforge.net/DTD/sodipodi-0.dtd"
   xmlns:inkscape="http://www.inkscape.org/namespaces/inkscape"
   viewBox="0.0 0.0 348.0 348.0"
   fill="none"
   version="1.1"
   id="svg3715"
   sodipodi:docname="Down.svg"
   inkscape:version="0.92.2 (5c3e80d, 2017-08-06)">
  <metadata
     id="metadata3721">
    <rdf:RDF>
      <cc:Work
         rdf:about="">
        <dc:format>image/svg+xml</dc:format>
        <dc:type
           rdf:resource="http://purl.org/dc/dcmitype/StillImage" />
        <dc:title />
      </cc:Work>
    </rdf:RDF>
  </metadata>
  <defs
     id="defs3719">
    <pattern
       y="0"
       x="0"
       height="6"
       width="6"
       patternUnits="userSpaceOnUse"
       id="EMFhbasepattern" />
    <pattern
       y="0"
       x="0"
       height="6"
       width="6"
       patternUnits="userSpaceOnUse"
       id="EMFhbasepattern-9" />
    <pattern
       y="0"
       x="0"
       height="6"
       width="6"
       patternUnits="userSpaceOnUse"
       id="EMFhbasepattern-4" />
    <pattern
       y="0"
       x="0"
       height="6"
       width="6"
       patternUnits="userSpaceOnUse"
       id="EMFhbasepattern-8" />
    <pattern
       y="0"
       x="0"
       height="6"
       width="6"
       patternUnits="userSpaceOnUse"
       id="EMFhbasepattern-3" />
    <pattern
       y="0"
       x="0"
       height="6"
       width="6"
       patternUnits="userSpaceOnUse"
       id="EMFhbasepattern-80" />
    <pattern
       y="0"
       x="0"
       height="6"
       width="6"
       patternUnits="userSpaceOnUse"
       id="EMFhbasepattern-7" />
    <pattern
       y="0"
       x="0"
       height="6"
       width="6"
       patternUnits="userSpaceOnUse"
       id="EMFhbasepattern-45" />
    <pattern
       y="0"
       x="0"
       height="6"
       width="6"
       patternUnits="userSpaceOnUse"
       id="EMFhbasepattern-0" />
    <pattern
       y="0"
       x="0"
       height="6"
       width="6"
       patternUnits="userSpaceOnUse"
       id="EMFhbasepattern-89" />
    <pattern
       y="0"
       x="0"
       height="6"
       width="6"
       patternUnits="userSpaceOnUse"
       id="EMFhbasepattern-5" />
    <pattern
       y="0"
       x="0"
       height="6"
       width="6"
       patternUnits="userSpaceOnUse"
       id="EMFhbasepattern-55" />
  </defs>
  <sodipodi:namedview
     pagecolor="#ffffff"
     bordercolor="#666666"
     borderopacity="1"
     objecttolerance="10"
     gridtolerance="10"
     guidetolerance="10"
     inkscape:pageopacity="0"
     inkscape:pageshadow="2"
     inkscape:window-width="884"
     inkscape:window-height="704"
     id="namedview3717"
     showgrid="false"
     inkscape:zoom="2.2274686"
     inkscape:cx="184.63323"
     inkscape:cy="163.4517"
     inkscape:window-x="472"
     inkscape:window-y="21"
     inkscape:window-maximized="0"
     inkscape:current-layer="svg3715" />
  <path
     d="M5.079 5.776h336.913v337.67H5.08z"
     id="path3711"
     stroke-width="2"
     stroke="#000" />
  <path
     d="M282.734 40.554c0-8.376 6.966-15.165 15.56-15.165 4.126 0 8.084 1.597 11.001 4.441 2.918 2.844 4.558 6.702 4.558 10.724 0 8.376-6.966 15.165-15.56 15.165-8.593 0-15.559-6.79-15.559-15.165z"
     id="path3713"
     stroke-width="2"
     stroke="#000" />
  <path
     style="fill:#cccccc;fill-opacity:1;stroke:#000000"
     d="M 25.145832,92.25 H 219.08333 V 286.18752 H 25.145832 Z"
     id="rect4567" />
  <path
     style="fill:#000000;fill-opacity:0.99497483;stroke:#000000"
     d="M 219.08333,92.25 H 327.22917 V 286.1875 H 219.08333 Z"
     id="rect4569" />
  <g
     aria-label="↑"
     style="font-style:normal;font-variant:normal;font-weight:400;font-size:32px;line-height:125%;font-family:Calibri;text-align:start;letter-spacing:0px;word-spacing:0px;text-anchor:start;fill:none;fill-opacity:1;stroke:#000000"
     id="text4687">
    <path
       d="m 247.75783,304.38153 q -1.95313,2.07813 -4,4.21875 -2.04688,2.125 -4.25,4.32813 -0.10938,0.10937 -0.23438,0.15625 -0.10937,0.0469 -0.26562,0.0156 -0.15625,-0.0469 -0.35938,-0.1875 -0.1875,-0.14062 -0.45312,-0.40625 -0.25,-0.25 -0.39063,-0.4375 -0.125,-0.20312 -0.15625,-0.34375 -0.0156,-0.14062 0.0156,-0.25 0.0469,-0.10937 0.14062,-0.20312 l 10.23438,-10.25 q 0.20312,-0.1875 0.39062,-0.3125 0.20313,-0.125 0.54688,-0.125 0.26562,0 0.46875,0.10937 0.21875,0.0937 0.46875,0.32813 l 10.23437,10.25 q 0.0937,0.0937 0.125,0.20312 0.0469,0.10938 0.0156,0.25 -0.0156,0.14063 -0.15625,0.34375 -0.125,0.1875 -0.375,0.4375 -0.26563,0.26563 -0.46875,0.40625 -0.1875,0.14063 -0.34375,0.1875 -0.15625,0.0312 -0.28125,-0.0156 -0.10938,-0.0469 -0.21875,-0.15625 -2.20313,-2.20313 -4.25,-4.32813 -2.04688,-2.14062 -4,-4.21875 v 21.89063 q 0,0.125 -0.0781,0.21875 -0.0625,0.0937 -0.21875,0.15625 -0.14062,0.0625 -0.375,0.10937 -0.21875,0.0469 -0.54687,0.0469 -0.32813,0 -0.5625,-0.0469 -0.21875,-0.0469 -0.375,-0.10937 -0.14063,-0.0625 -0.21875,-0.15625 -0.0625,-0.0937 -0.0625,-0.21875 z"
       style="font-style:normal;font-variant:normal;font-weight:400;font-size:32px;font-family:Calibri;fill:none;stroke:#000000"
       id="path3597" />
  </g>
  <g
     aria-label="←"
     style="font-style:normal;font-variant:normal;font-weight:400;font-size:32px;line-height:125%;font-family:Calibri;text-align:start;letter-spacing:0px;word-spacing:0px;text-anchor:start;fill:none;fill-opacity:1;stroke:#000000"
     id="text4709">
    <path
       d="m 297.42377,316.20062 q 2.0625,1.95313 4.21875,4.03125 2.17187,2.0625 4.375,4.26563 0.10937,0.10937 0.15625,0.21875 0.0469,0.125 0,0.28125 -0.0312,0.15625 -0.1875,0.34375 -0.14063,0.20312 -0.40625,0.46875 -0.25,0.25 -0.45313,0.375 -0.1875,0.14062 -0.32812,0.15625 -0.14063,0.0312 -0.25,-0.0156 -0.10938,-0.0312 -0.20313,-0.125 l -10.25,-10.23437 q -0.1875,-0.20313 -0.3125,-0.39063 -0.10937,-0.20312 -0.10937,-0.54687 0,-0.26563 0.0937,-0.46875 0.0937,-0.21875 0.32812,-0.46875 l 10.25,-10.23438 q 0.0937,-0.0937 0.20313,-0.125 0.10937,-0.0469 0.25,-0.0156 0.14062,0.0156 0.32812,0.15625 0.20313,0.125 0.45313,0.375 0.26562,0.26562 0.40625,0.46875 0.15625,0.1875 0.1875,0.34375 0.0469,0.15625 0,0.28125 -0.0469,0.125 -0.15625,0.23437 -2.20313,2.1875 -4.375,4.26563 -2.15625,2.0625 -4.21875,4.01562 h 19.95312 q 0.10938,0 0.20313,0.0625 0.0937,0.0625 0.15625,0.20313 0.0781,0.125 0.10937,0.35937 0.0469,0.21875 0.0469,0.54688 0,0.32812 -0.0469,0.5625 -0.0312,0.21875 -0.10937,0.35937 -0.0625,0.125 -0.15625,0.1875 -0.0937,0.0625 -0.20313,0.0625 z"
       style="font-style:normal;font-variant:normal;font-weight:400;font-size:32px;font-family:Calibri;fill:none;stroke:#000000"
       id="path3600" />
  </g>
  <g
     aria-label="→"
     style="font-style:normal;font-variant:normal;font-weight:400;font-size:32px;line-height:125%;font-family:Calibri;text-align:start;letter-spacing:0px;word-spacing:0px;text-anchor:start;fill:none;fill-opacity:1;stroke:#000000"
     id="text4731">
    <path
       d="m 285.71301,314.46103 q -2.07812,-1.95313 -4.23437,-4.01563 -2.15625,-2.07812 -4.35938,-4.26562 -0.10937,-0.10938 -0.15625,-0.23438 -0.0469,-0.125 -0.0156,-0.28125 0.0469,-0.15625 0.1875,-0.34375 0.15625,-0.20312 0.42187,-0.46875 0.25,-0.25 0.4375,-0.375 0.20313,-0.14062 0.34375,-0.15625 0.14063,-0.0312 0.25,0.0156 0.10938,0.0312 0.20313,0.125 l 10.25,10.23437 q 0.1875,0.20313 0.29687,0.40625 0.125,0.1875 0.125,0.53125 0,0.26563 -0.0937,0.48438 -0.0937,0.20312 -0.32812,0.45312 l -10.25,10.23438 q -0.0937,0.0937 -0.20313,0.125 -0.10937,0.0469 -0.25,0.0156 -0.14062,-0.0156 -0.34375,-0.15625 -0.1875,-0.125 -0.4375,-0.375 -0.26562,-0.26562 -0.42187,-0.46875 -0.14063,-0.1875 -0.1875,-0.34375 -0.0312,-0.15625 0.0156,-0.28125 0.0469,-0.10937 0.15625,-0.21875 2.20313,-2.20312 4.35938,-4.26562 2.15625,-2.07813 4.23437,-4.03125 h -19.95312 q -0.10938,0 -0.20313,-0.0625 -0.0937,-0.0625 -0.17187,-0.1875 -0.0625,-0.14063 -0.10938,-0.35938 -0.0312,-0.23437 -0.0312,-0.5625 0,-0.32812 0.0312,-0.54687 0.0469,-0.23438 0.10938,-0.35938 0.0781,-0.14062 0.17187,-0.20312 0.0937,-0.0625 0.20313,-0.0625 z"
       style="font-style:normal;font-variant:normal;font-weight:400;font-size:32px;font-family:Calibri;fill:none;stroke:#000000"
       id="path3603" />
  </g>
  <g
     style="font-style:normal;font-variant:normal;font-weight:normal;font-stretch:normal;font-size:40px;line-height:1.25;font-family:sans-serif;-inkscape-font-specification:Normal;letter-spacing:0px;word-spacing:0px;fill:#000000;fill-opacity:1;stroke:none"
     id="text4746" />
  <g
     aria-label="a"
     style="font-style:normal;font-variant:normal;font-weight:normal;font-stretch:normal;font-size:13.33333302px;line-height:1.25;font-family:pokemon-font;-inkscape-font-specification:pokemon-font;letter-spacing:0px;word-spacing:0px;fill:#ffffff;fill-opacity:1;stroke:none"
     id="text41">
    <path
       d="m 300.95835,112.52083 h 5 v -1.66667 h -5 v -1.66667 h 5 v -1.66666 h 1.66667 v 5 h 1.66667 v 1.66666 h -8.33334 z m -1.66666,-1.66667 h 1.66666 v 1.66667 h -1.66666 z m 1.66666,-5 h 5 v 1.66667 h -5 z"
       style=""
       id="path3607" />
  </g>
  <g
     aria-label="b"
     style="font-style:normal;font-variant:normal;font-weight:normal;font-stretch:normal;font-size:13.33333302px;line-height:1.25;font-family:pokemon-font;-inkscape-font-specification:pokemon-font;letter-spacing:0px;word-spacing:0px;fill:#ffffff;fill-opacity:1;stroke:none"
     id="text45">
    <path
       d="m 299.89584,122.45833 h 1.66667 v 5 h 6.66667 v 1.66667 h -6.66667 v 3.33333 h 6.66667 v 1.66667 h -8.33334 z m 8.33334,6.66667 h 1.66666 v 3.33333 h -1.66666 z"
       style=""
       id="path3610" />
  </g>
  <g
     aria-label="↑"
     style="font-style:normal;font-variant:normal;font-weight:normal;font-stretch:normal;font-size:13.33333302px;line-height:125%;font-family:pokemon-font;-inkscape-font-specification:pokemon-font;text-align:start;letter-spacing:0px;word-spacing:0px;text-anchor:start;fill:#ffffff;fill-opacity:1;stroke:none"
     id="text56">
    <path
       d="m 298.05469,146.45968 h 1.66666 v -1.66667 h 1.66667 v -1.66667 h 1.66667 v -1.66666 h 1.66666 v 1.66666 h 1.66667 v 1.66667 h 1.66667 v 1.66667 h 1.66666 v 1.66666 h -1.66666 v -1.66666 h -1.66667 v -1.66667 h -1.66667 v -1.66667 h -1.66666 v 1.66667 h -1.66667 v 1.66667 h -1.66667 v 1.66666 h -1.66666 z m 5,-5 h 1.66666 v 11.66666 h -1.66666 z"
       style="font-style:normal;font-variant:normal;font-weight:normal;font-stretch:normal;font-size:13.33333302px;font-family:pokemon-font;-inkscape-font-specification:pokemon-font;fill:#ffffff"
       id="path3613" />
  </g>
  <g
     aria-label="→"
     style="font-style:normal;font-variant:normal;font-weight:400;font-size:13.3125px;line-height:125%;font-family:pokemon-font;text-align:start;letter-spacing:0px;word-spacing:0px;text-anchor:start;fill:#ffffff;fill-opacity:1;stroke:none"
     id="text76">
    <path
       d="m 305.56122,159.71745 v 1.66407 h 1.66406 v 1.66406 h 1.66406 v 1.66406 h 1.66407 v 1.66406 h -1.66407 v 1.66407 h -1.66406 v 1.66406 h -1.66406 v 1.66406 h -1.66406 v -1.66406 h 1.66406 v -1.66406 h 1.66406 v -1.66407 h 1.66406 v -1.66406 h -1.66406 v -1.66406 h -1.66406 v -1.66406 h -1.66406 v -1.66407 z m 4.99219,4.99219 v 1.66406 h -11.64844 v -1.66406 z"
       style="font-style:normal;font-variant:normal;font-weight:400;font-size:13.3125px;font-family:pokemon-font;fill:#ffffff"
       id="path3616" />
  </g>
  <g
     style="font-style:normal;font-variant:normal;font-weight:400;font-size:14.75px;line-height:125%;font-family:Calibri;text-align:start;letter-spacing:0px;word-spacing:0px;text-anchor:start;fill:#000000;fill-opacity:1;stroke:none"
     id="text82" />
  <g
     aria-label="←"
     style="font-style:normal;font-variant:normal;font-weight:400;font-size:13.3125px;line-height:125%;font-family:pokemon-font;text-align:start;letter-spacing:0px;word-spacing:0px;text-anchor:start;fill:#ffffff;fill-opacity:1;stroke:none"
     id="text104">
    <path
       d="m 303.29297,189.49089 v -1.66406 h -1.66406 v -1.66406 h -1.66407 v -1.66407 h -1.66406 v -1.66406 h 1.66406 v -1.66406 h 1.66407 v -1.66406 h 1.66406 v -1.66407 h 1.66406 v 1.66407 h -1.66406 v 1.66406 h -1.66406 v 1.66406 h -1.66407 v 1.66406 h 1.66407 v 1.66407 h 1.66406 v 1.66406 h 1.66406 v 1.66406 z m -4.99219,-4.99219 v -1.66406 h 11.64844 v 1.66406 z"
       style="font-style:normal;font-variant:normal;font-weight:400;font-size:13.3125px;font-family:pokemon-font;fill:#ffffff"
       id="path3620" />
  </g>
  <g
     style="font-style:normal;font-variant:normal;font-weight:400;font-size:14.75px;line-height:125%;font-family:Calibri;text-align:start;letter-spacing:0px;word-spacing:0px;text-anchor:start;fill:#000000;fill-opacity:1;stroke:none"
     id="text110" />
  <g
     aria-label="anarchy"
     transform="scale(0.70470118,1.4190412)"
     style="font-style:normal;font-variant:normal;font-weight:normal;font-stretch:normal;font-size:7.34063768px;line-height:1.25;font-family:pokemon-font;-inkscape-font-specification:pokemon-font;letter-spacing:0px;word-spacing:0px;fill:#ffffff;fill-opacity:1;stroke:none;stroke-width:0.91757971"
     id="text127">
    <path
       d="m 409.33533,143.20116 h 2.75274 v -0.91758 h -2.75274 V 141.366 h 2.75274 v -0.91757 h 0.91758 v 2.75273 h 0.91758 v 0.91758 h -4.5879 z m -0.91757,-0.91758 h 0.91757 v 0.91758 h -0.91757 z m 0.91757,-2.75273 h 2.75274 v 0.91758 h -2.75274 z"
       style="fill:#ffffff;stroke-width:0.91757971"
       id="path3624" />
    <path
       d="m 415.75839,139.53085 h 3.67032 v 0.91758 h -2.75274 v 3.67031 h -0.91758 z m 3.67032,0.91758 h 0.91758 v 3.67031 h -0.91758 z"
       style="fill:#ffffff;stroke-width:0.91757971"
       id="path3626" />
    <path
       d="m 424.01661,143.20116 h 2.75274 v -0.91758 h -2.75274 V 141.366 h 2.75274 v -0.91757 h 0.91758 v 2.75273 h 0.91758 v 0.91758 h -4.5879 z m -0.91758,-0.91758 h 0.91758 v 0.91758 h -0.91758 z m 0.91758,-2.75273 h 2.75274 v 0.91758 h -2.75274 z"
       style="fill:#ffffff;stroke-width:0.91757971"
       id="path3628" />
    <path
       d="m 430.43967,139.53085 h 0.91758 v 1.83515 h 0.91758 v 0.91758 h -0.91758 v 1.83516 h -0.91758 z m 1.83516,0.91758 h 0.91758 v 0.91757 h -0.91758 z m 0.91758,-0.91758 h 2.75274 v 0.91758 h -2.75274 z"
       style="fill:#ffffff;stroke-width:0.91757971"
       id="path3630" />
    <path
       d="m 438.69789,139.53085 h 3.67031 v 0.91758 h -3.67031 z m -0.91758,0.91758 h 0.91758 v 2.75273 h -0.91758 z m 0.91758,2.75273 h 3.67031 v 0.91758 h -3.67031 z m 3.67031,-0.91758 h 0.91758 v 0.91758 h -0.91758 z m 0,-1.83515 h 0.91758 v 0.91757 h -0.91758 z"
       style="fill:#ffffff;stroke-width:0.91757971"
       id="path3632" />
    <path
       d="m 445.12094,137.69569 h 0.91758 v 2.75274 h 2.75274 v 0.91757 h -2.75274 v 2.75274 h -0.91758 z m 3.67032,3.67031 h 0.91758 v 2.75274 h -0.91758 z"
       style="fill:#ffffff;stroke-width:0.91757971"
       id="path3634" />
    <path
       d="m 456.1319,143.20116 h -2.75274 v -0.91758 h 2.75274 v -2.75273 h 0.91758 v 4.58789 h -0.91758 z m -3.67032,0.91758 h 3.67032 v 0.91758 h -3.67032 z m 0,-4.58789 h 0.91758 v 2.75273 h -0.91758 z"
       style="fill:#ffffff;stroke-width:0.91757971"
       id="path3636" />
  </g>
  <g
     aria-label="start"
     transform="scale(0.86187059,1.160267)"
     style="font-style:normal;font-variant:normal;font-weight:normal;font-stretch:normal;font-size:9.1932869px;line-height:1.25;font-family:pokemon-font;-inkscape-font-specification:pokemon-font;letter-spacing:0px;word-spacing:0px;fill:#ffffff;fill-opacity:1;stroke:none;stroke-width:0.86187059"
     id="text131">
    <path
       d="m 331.8364,188.91126 h 5.7458 v 1.14916 h -5.7458 z m 0,-3.44748 h 1.14916 v 1.14916 h -1.14916 z m 1.14916,1.14916 h 4.59664 v 1.14916 h -4.59664 z m 4.59664,1.14916 h 1.14916 v 1.14916 h -1.14916 z m -4.59664,-3.44748 h 4.59664 v 1.14916 h -4.59664 z"
       style="fill:#ffffff;stroke-width:0.86187059"
       id="path3639" />
    <path
       d="m 343.328,185.46378 h -2.29832 v -1.14916 h 2.29832 v -1.14916 h 1.14916 v 1.14916 h 2.29833 v 1.14916 h -2.29833 v 3.44748 H 343.328 Z m 1.14916,3.44748 h 2.29833 v 1.14916 h -2.29833 z"
       style="fill:#ffffff;stroke-width:0.86187059"
       id="path3641" />
    <path
       d="m 351.37213,188.91126 h 3.44748 v -1.14916 h -3.44748 v -1.14916 h 3.44748 v -1.14916 h 1.14916 v 3.44748 h 1.14916 v 1.14916 h -5.7458 z m -1.14916,-1.14916 h 1.14916 v 1.14916 h -1.14916 z m 1.14916,-3.44748 h 3.44748 v 1.14916 h -3.44748 z"
       style="fill:#ffffff;stroke-width:0.86187059"
       id="path3643" />
    <path
       d="m 359.41626,184.31462 h 1.14916 v 2.29832 h 1.14916 v 1.14916 h -1.14916 v 2.29832 h -1.14916 z m 2.29832,1.14916 h 1.14916 v 1.14916 h -1.14916 z m 1.14916,-1.14916 h 3.44748 v 1.14916 h -3.44748 z"
       style="fill:#ffffff;stroke-width:0.86187059"
       id="path3645" />
    <path
       d="m 370.90786,185.46378 h -2.29832 v -1.14916 h 2.29832 v -1.14916 h 1.14917 v 1.14916 h 2.29832 v 1.14916 h -2.29832 v 3.44748 h -1.14917 z m 1.14917,3.44748 h 2.29832 v 1.14916 h -2.29832 z"
       style="fill:#ffffff;stroke-width:0.86187059"
       id="path3647" />
  </g>
  <g
     aria-label="b"
     style="font-style:normal;font-variant:normal;font-weight:normal;font-stretch:normal;font-size:13.33333302px;line-height:1.25;font-family:pokemon-font;-inkscape-font-specification:pokemon-font;letter-spacing:0px;word-spacing:0px;fill:#ffffff;fill-opacity:1;stroke:none"
     id="text135">
    <path
       d="m 301.70834,226.97916 h 1.66667 v 5 h 6.66667 v 1.66667 h -6.66667 v 3.33333 h 6.66667 v 1.66667 h -8.33334 z m 8.33334,6.66667 h 1.66666 v 3.33333 h -1.66666 z"
       style=""
       id="path3650" />
  </g>
  <g
     aria-label="←"
     style="font-style:normal;font-variant:normal;font-weight:400;font-size:13.3125px;line-height:125%;font-family:pokemon-font;text-align:start;letter-spacing:0px;word-spacing:0px;text-anchor:start;fill:#ffffff;fill-opacity:1;stroke:none"
     id="text144">
    <path
       d="m 306.50131,256.55338 v -1.66407 h -1.66406 v -1.66406 h -1.66406 v -1.66406 h -1.66407 v -1.66406 h 1.66407 v -1.66407 h 1.66406 V 246.569 h 1.66406 v -1.66406 h 1.66406 v 1.66406 h -1.66406 v 1.66406 h -1.66406 v 1.66407 h -1.66406 v 1.66406 h 1.66406 v 1.66406 h 1.66406 v 1.66406 h 1.66406 v 1.66407 z m -4.99219,-4.99219 v -1.66406 h 11.64844 v 1.66406 z"
       style="font-style:normal;font-variant:normal;font-weight:400;font-size:13.3125px;font-family:pokemon-font;fill:#ffffff"
       id="path3653" />
  </g>
  <g
     style="font-style:normal;font-variant:normal;font-weight:400;font-size:14.75px;line-height:125%;font-family:Calibri;text-align:start;letter-spacing:0px;word-spacing:0px;text-anchor:start;fill:#000000;fill-opacity:1;stroke:none"
     id="text150" />
  <path
     style="fill:#ffffff;fill-opacity:1;stroke:#000000;stroke-width:0.81551635"
     d="m 218.54158,263.50702 h 108.77985 v 16.48755 H 218.54158 Z"
     id="rect1954" />
  <g
     aria-label="↓"
     style="font-style:normal;font-variant:normal;font-weight:400;font-size:13.3125px;line-height:125%;font-family:pokemon-font;text-align:start;letter-spacing:0px;word-spacing:0px;text-anchor:start;fill:#000000;fill-opacity:1;stroke:none"
     id="text172">
    <path
       d="m 302.98569,270.5773 v 1.66406 h 1.66406 v 1.66407 h 1.66406 v 1.66406 h 1.66406 v -1.66406 h 1.66407 v -1.66407 h 1.66406 v -1.66406 h 1.66406 v 1.66406 H 311.306 v 1.66407 h -1.66406 v 1.66406 h -1.66407 v 1.66406 h -1.66406 v -1.66406 h -1.66406 v -1.66406 h -1.66406 v -1.66407 h -1.66407 v -1.66406 z m 4.99218,-4.99219 v 11.64844 h -1.66406 v -11.64844 z"
       style="font-style:normal;font-variant:normal;font-weight:400;font-size:13.3125px;font-family:pokemon-font;fill:#000000"
       id="path3658" />
  </g>
  <g
     style="font-style:normal;font-variant:normal;font-weight:400;font-size:14.75px;line-height:125%;font-family:Calibri;text-align:start;letter-spacing:0px;word-spacing:0px;text-anchor:start;fill:#000000;fill-opacity:1;stroke:none"
     id="text178" />
  <g
     aria-label="Keep_Talking"
     transform="scale(0.61711634,1.62044)"
     style="font-style:normal;font-variant:normal;font-weight:normal;font-stretch:normal;font-size:7.3925395px;line-height:1.25;font-family:pokemon-font;-inkscape-font-specification:pokemon-font;letter-spacing:0px;word-spacing:0px;fill:#ffffff;fill-opacity:1;stroke:none;stroke-width:1.38610113"
     id="text1002">
    <path
       d="m 366.82715,64.231517 h 0.92407 v 3.69627 h 0.92406 v 0.924067 h -0.92406 v 1.848135 h -0.92407 z m 1.84813,2.772203 h 0.92407 v -0.924068 h 0.92407 v 1.848135 h -1.84814 z m 1.84814,0.924067 h 0.92407 v 0.924067 h -0.92407 z m 0.92407,0.924067 h 0.92406 v 0.924068 h -0.92406 z m 0.92406,0.924068 h 0.92407 v 0.924067 h -0.92407 z m -1.84813,-4.620337 h 0.92407 v 0.924067 h -0.92407 z m 0.92407,-0.924068 h 0.92406 v 0.924068 h -0.92406 z"
       style="stroke-width:1.38610113"
       id="path3662" />
    <path
       d="m 374.21969,67.00372 h 0.92407 v 0.924067 h 3.69627 V 67.00372 h 0.92406 v 1.848134 h -4.62033 v 0.924068 h -0.92407 z m 0.92407,2.772202 h 4.62033 v 0.924067 h -4.62033 z m 0,-3.69627 h 3.69627 v 0.924068 h -3.69627 z"
       style="stroke-width:1.38610113"
       id="path3664" />
    <path
       d="m 381.61223,67.00372 h 0.92406 v 0.924067 h 3.69627 V 67.00372 h 0.92407 v 1.848134 h -4.62034 v 0.924068 h -0.92406 z m 0.92406,2.772202 h 4.62034 v 0.924067 h -4.62034 z m 0,-3.69627 h 3.69627 v 0.924068 h -3.69627 z"
       style="stroke-width:1.38610113"
       id="path3666" />
    <path
       d="m 389.00477,66.079652 h 4.62033 v 0.924068 h -3.69627 v 1.848134 h 3.69627 v 0.924068 h -3.69627 v 1.848135 h -0.92406 z m 4.62033,0.924068 h 0.92407 v 1.848134 h -0.92407 z"
       style="stroke-width:1.38610113"
       id="path3668" />
    <path
       d="m 396.39731,70.699989 h 6.46847 v 0.924068 h -6.46847 z"
       style="stroke-width:1.38610113"
       id="path3670" />
    <path
       d="m 406.56205,65.155585 h -2.77221 v -0.924068 h 6.46848 v 0.924068 h -2.77221 v 5.544404 h -0.92406 z"
       style="stroke-width:1.38610113"
       id="path3672" />
    <path
       d="m 412.10645,69.775922 h 2.7722 v -0.924068 h -2.7722 v -0.924067 h 2.7722 V 67.00372 h 0.92407 v 2.772202 h 0.92407 v 0.924067 h -4.62034 z m -0.92407,-0.924068 h 0.92407 v 0.924068 h -0.92407 z m 0.92407,-2.772202 h 2.7722 v 0.924068 h -2.7722 z"
       style="stroke-width:1.38610113"
       id="path3674" />
    <path
       d="m 421.34713,64.231517 h 0.92406 v 6.468472 h -0.92406 z"
       style="stroke-width:1.38610113"
       id="path3676" />
    <path
       d="m 425.96746,64.231517 h 0.92407 v 3.69627 h 0.92407 v 0.924067 h -0.92407 v 1.848135 h -0.92407 z m 1.84814,4.620337 h 1.84813 v 0.924068 h -1.84813 z m 1.84813,0.924068 h 1.84814 v 0.924067 h -1.84814 z M 427.8156,67.00372 h 1.84813 v 0.924067 h -1.84813 z m 1.84813,-0.924068 h 1.84814 v 0.924068 h -1.84814 z"
       style="stroke-width:1.38610113"
       id="path3678" />
    <path
       d="m 436.1322,67.00372 h 0.92407 v 3.696269 h -0.92407 z m 0,-1.848135 h 0.92407 v 0.924067 h -0.92407 z"
       style="stroke-width:1.38610113"
       id="path3680" />
    <path
       d="m 440.75254,66.079652 h 3.69627 v 0.924068 h -2.7722 v 3.696269 h -0.92407 z m 3.69627,0.924068 h 0.92407 v 3.696269 h -0.92407 z"
       style="stroke-width:1.38610113"
       id="path3682" />
    <path
       d="m 452.76542,69.775922 h -3.69627 v -0.924068 h 3.69627 V 67.00372 h -3.69627 v -0.924068 h 4.62034 v 4.620337 h -0.92407 z m -4.62034,0.924067 h 4.62034 v 0.924068 h -4.62034 z m 0,-3.696269 h 0.92407 v 1.848134 h -0.92407 z"
       style="stroke-width:1.38610113"
       id="path3684" />
  </g>
  <g
     aria-label="I_&lt;3_Down"
     transform="scale(0.82544634,1.2114658)"
     style="font-style:normal;font-variant:normal;font-weight:normal;font-stretch:normal;font-size:7.39462376px;line-height:1.25;font-family:pokemon-font;-inkscape-font-specification:pokemon-font;letter-spacing:0px;word-spacing:0px;fill:#000000;fill-opacity:1;stroke:none;stroke-width:1.38649189"
     id="text1006">
    <path
       d="m 277.52905,226.22643 h 1.84866 v -4.62164 h -1.84866 v -0.92433 h 4.62164 v 0.92433 h -1.84865 v 4.62164 h 1.84865 v 0.92433 h -4.62164 z"
       style="fill:#000000;stroke-width:1.38649189"
       id="path3687" />
    <path
       d="m 284.92368,227.15076 h 6.47029 v 0.92432 h -6.47029 z"
       style="fill:#000000;stroke-width:1.38649189"
       id="path3689" />
    <path
       d="m 296.01561,227.15076 h -0.92433 v -0.92433 h -0.92432 v -0.92433 h -0.92433 v -0.92433 h 0.92433 v -0.92433 h 0.92432 v -0.92432 h 0.92433 v -0.92433 h 1.84866 v 0.92433 h -0.92433 v 0.92432 h -0.92433 v 0.92433 h -0.92433 v 0.92433 h 0.92433 v 0.92433 h 0.92433 v 0.92433 h 0.92433 v 0.92432 h -1.84866 z"
       style="fill:#000000;stroke-width:1.38649189"
       id="path3691" />
    <path
       d="m 300.63725,226.22643 h -0.92433 v -0.92433 h 1.84866 v 0.92433 h 2.77298 v -1.84866 h 1.84866 v 1.84866 h -0.92433 v 0.92433 h -4.62164 z m 0.92433,-2.77299 h 1.84866 v -0.92432 h -2.77299 v -0.92433 h 5.54597 v 0.92433 h -0.92433 v 0.92432 h -0.92433 v 0.92433 h -2.77298 z"
       style="fill:#000000;stroke-width:1.38649189"
       id="path3693" />
    <path
       d="m 307.10755,227.15076 h 6.47029 v 0.92432 h -6.47029 z"
       style="fill:#000000;stroke-width:1.38649189"
       id="path3695" />
    <path
       d="m 314.50217,220.68046 h 4.62164 v 0.92433 h -3.69731 v 4.62164 h 3.69731 v 0.92433 h -4.62164 z m 4.62164,4.62164 h 0.92433 v 0.92433 h -0.92433 z m 0.92433,-2.77298 h 0.92433 v 2.77298 h -0.92433 z m -0.92433,-0.92433 h 0.92433 v 0.92433 h -0.92433 z"
       style="fill:#000000;stroke-width:1.38649189"
       id="path3697" />
    <path
       d="m 322.82113,222.52912 h 3.69731 v 0.92432 h -3.69731 z m -0.92433,0.92432 h 0.92433 v 2.77299 h -0.92433 z m 0.92433,2.77299 h 3.69731 v 0.92433 h -3.69731 z m 3.69731,-2.77299 h 0.92432 v 2.77299 h -0.92432 z"
       style="fill:#000000;stroke-width:1.38649189"
       id="path3699" />
    <path
       d="m 334.83739,222.52912 h 0.92433 v 3.69731 h -0.92433 z m -4.62164,3.69731 h 0.92433 v 0.92433 h -0.92433 z m -0.92433,-3.69731 h 0.92433 v 3.69731 h -0.92433 z m 1.84866,2.77298 h 0.92432 v 0.92433 h -0.92432 z m 1.84865,0 h 0.92433 v 0.92433 h -0.92433 z m 0.92433,0.92433 h 0.92433 v 0.92433 h -0.92433 z m -1.84866,-2.77299 h 0.92433 v 1.84866 h -0.92433 z"
       style="fill:#000000;stroke-width:1.38649189"
       id="path3701" />
    <path
       d="m 336.68604,222.52912 h 3.69731 v 0.92432 h -2.77298 v 3.69732 h -0.92433 z m 3.69731,0.92432 h 0.92433 v 3.69732 h -0.92433 z"
       style="fill:#000000;stroke-width:1.38649189"
       id="path3703" />
  </g>
  <g
     aria-label="bombbot"
     transform="scale(0.81167942,1.2320135)"
     style="font-style:normal;font-variant:normal;font-weight:normal;font-stretch:normal;font-size:9.85610771px;line-height:1.25;font-family:pokemon-font;-inkscape-font-specification:pokemon-font;letter-spacing:0px;word-spacing:0px;fill:#ffffff;fill-opacity:1;stroke:none;stroke-width:1.23201346"
     id="text1010">
    <path
       d="m 279.64142,98.771246 h 1.23201 v 3.696044 h 4.92806 v 1.23201 h -4.92806 v 2.46403 h 4.92806 v 1.23201 h -6.16007 z m 6.16007,4.928054 h 1.23201 v 2.46403 h -1.23201 z"
       style="stroke-width:1.23201346"
       id="path3706" />
    <path
       d="m 290.72954,101.23527 h 4.92805 v 1.23202 h -4.92805 z m -1.23201,1.23202 h 1.23201 v 3.69604 h -1.23201 z m 1.23201,3.69604 h 4.92805 v 1.23201 h -4.92805 z m 4.92805,-3.69604 h 1.23202 v 3.69604 h -1.23202 z"
       style="stroke-width:1.23201346"
       id="path3708" />
    <path
       d="m 299.35363,101.23527 h 3.69604 v 1.23202 h -2.46402 v 4.92805 h -1.23202 z m 3.69604,1.23202 h 1.23202 v 4.92805 h -1.23202 z m 3.69604,0 h 1.23202 v 4.92805 h -1.23202 z m -2.46402,-1.23202 h 2.46402 v 1.23202 h -2.46402 z"
       style="stroke-width:1.23201346"
       id="path3710" />
    <path
       d="m 309.20974,98.771246 h 1.23202 v 3.696044 h 4.92805 v 1.23201 h -4.92805 v 2.46403 h 4.92805 v 1.23201 h -6.16007 z m 6.16007,4.928054 h 1.23201 v 2.46403 h -1.23201 z"
       style="stroke-width:1.23201346"
       id="path3712" />
    <path
       d="m 319.06585,98.771246 h 1.23201 v 3.696044 h 4.92806 v 1.23201 h -4.92806 v 2.46403 h 4.92806 v 1.23201 h -6.16007 z m 6.16007,4.928054 h 1.23201 v 2.46403 h -1.23201 z"
       style="stroke-width:1.23201346"
       id="path3714" />
    <path
       d="m 330.15397,101.23527 h 4.92806 v 1.23202 h -4.92806 z m -1.23201,1.23202 h 1.23201 v 3.69604 h -1.23201 z m 1.23201,3.69604 h 4.92806 v 1.23201 h -4.92806 z m 4.92806,-3.69604 h 1.23201 v 3.69604 h -1.23201 z"
       style="stroke-width:1.23201346"
       id="path3716" />
    <path
       d="m 341.24209,102.46729 h -2.46403 v -1.23202 h 2.46403 v -1.23201 h 1.23202 v 1.23201 h 2.46402 v 1.23202 h -2.46402 v 3.69604 h -1.23202 z m 1.23202,3.69604 h 2.46402 v 1.23201 h -2.46402 z"
       style="stroke-width:1.23201346"
       id="path3718" />
  </g>
  <g
     aria-label="bombbot"
     transform="scale(0.81167942,1.2320135)"
     style="font-style:normal;font-variant:normal;font-weight:normal;font-stretch:normal;font-size:9.85610771px;line-height:1.25;font-family:pokemon-font;-inkscape-font-specification:pokemon-font;letter-spacing:0px;word-spacing:0px;fill:#ffffff;fill-opacity:1;stroke:none;stroke-width:1.23201346"
     id="text1010-9">
    <path
       d="m 280.4884,184.97835 h 1.23202 v 3.69604 h 4.92805 v 1.23202 h -4.92805 v 2.46402 h 4.92805 v 1.23202 h -6.16007 z m 6.16007,4.92806 h 1.23201 v 2.46402 h -1.23201 z"
       style="stroke-width:1.23201346"
       id="path3721" />
    <path
       d="m 291.57652,187.44238 h 4.92806 v 1.23201 h -4.92806 z m -1.23201,1.23201 h 1.23201 v 3.69604 h -1.23201 z m 1.23201,3.69604 h 4.92806 v 1.23202 h -4.92806 z m 4.92806,-3.69604 h 1.23201 v 3.69604 h -1.23201 z"
       style="stroke-width:1.23201346"
       id="path3723" />
    <path
       d="m 300.20062,187.44238 h 3.69604 v 1.23201 h -2.46403 v 4.92806 h -1.23201 z m 3.69604,1.23201 h 1.23201 v 4.92806 h -1.23201 z m 3.69604,0 h 1.23201 v 4.92806 h -1.23201 z m -2.46403,-1.23201 h 2.46403 v 1.23201 h -2.46403 z"
       style="stroke-width:1.23201346"
       id="path3725" />
    <path
       d="m 310.05673,184.97835 h 1.23201 v 3.69604 h 4.92805 v 1.23202 h -4.92805 v 2.46402 h 4.92805 v 1.23202 h -6.16006 z m 6.16006,4.92806 h 1.23202 v 2.46402 h -1.23202 z"
       style="stroke-width:1.23201346"
       id="path3727" />
    <path
       d="m 319.91283,184.97835 h 1.23202 v 3.69604 h 4.92805 v 1.23202 h -4.92805 v 2.46402 h 4.92805 v 1.23202 h -6.16007 z m 6.16007,4.92806 h 1.23201 v 2.46402 h -1.23201 z"
       style="stroke-width:1.23201346"
       id="path3729" />
    <path
       d="m 331.00096,187.44238 h 4.92805 v 1.23201 h -4.92805 z m -1.23202,1.23201 h 1.23202 v 3.69604 h -1.23202 z m 1.23202,3.69604 h 4.92805 v 1.23202 h -4.92805 z m 4.92805,-3.69604 h 1.23201 v 3.69604 h -1.23201 z"
       style="stroke-width:1.23201346"
       id="path3731" />
    <path
       d="m 342.08908,188.67439 h -2.46403 v -1.23201 h 2.46403 v -1.23201 h 1.23201 v 1.23201 h 2.46403 v 1.23201 h -2.46403 v 3.69604 h -1.23201 z m 1.23201,3.69604 h 2.46403 v 1.23202 h -2.46403 z"
       style="stroke-width:1.23201346"
       id="path3733" />
  </g>
  <g
     aria-label="anarchy_only"
     transform="scale(0.65095466,1.5362053)"
     style="font-style:normal;font-variant:normal;font-weight:normal;font-stretch:normal;font-size:6.78077745px;line-height:1.25;font-family:pokemon-font;-inkscape-font-specification:pokemon-font;letter-spacing:0px;word-spacing:0px;fill:#ffffff;fill-opacity:1;stroke:none;stroke-width:0.84759718"
     id="text1130">
    <path
       d="m 348.89411,132.27942 h 2.54279 v -0.8476 h -2.54279 v -0.8476 h 2.54279 v -0.84759 h 0.84759 v 2.54279 h 0.8476 v 0.84759 h -4.23798 z m -0.8476,-0.8476 h 0.8476 v 0.8476 h -0.8476 z m 0.8476,-2.54279 h 2.54279 v 0.8476 h -2.54279 z"
       style="stroke-width:0.84759718"
       id="path3736" />
    <path
       d="m 354.82729,128.88903 h 3.39038 v 0.8476 h -2.54279 v 3.39038 h -0.84759 z m 3.39038,0.8476 h 0.8476 v 3.39038 h -0.8476 z"
       style="stroke-width:0.84759718"
       id="path3738" />
    <path
       d="m 362.45566,132.27942 h 2.54279 v -0.8476 h -2.54279 v -0.8476 h 2.54279 v -0.84759 h 0.8476 v 2.54279 h 0.8476 v 0.84759 h -4.23799 z m -0.8476,-0.8476 h 0.8476 v 0.8476 h -0.8476 z m 0.8476,-2.54279 h 2.54279 v 0.8476 h -2.54279 z"
       style="stroke-width:0.84759718"
       id="path3740" />
    <path
       d="m 368.38884,128.88903 h 0.8476 v 1.69519 h 0.8476 v 0.8476 h -0.8476 v 1.69519 h -0.8476 z m 1.6952,0.8476 h 0.84759 v 0.84759 h -0.84759 z m 0.84759,-0.8476 h 2.54279 v 0.8476 h -2.54279 z"
       style="stroke-width:0.84759718"
       id="path3742" />
    <path
       d="m 376.01722,128.88903 h 3.39038 v 0.8476 h -3.39038 z m -0.8476,0.8476 h 0.8476 v 2.54279 h -0.8476 z m 0.8476,2.54279 h 3.39038 v 0.84759 h -3.39038 z m 3.39038,-0.8476 h 0.8476 v 0.8476 h -0.8476 z m 0,-1.69519 h 0.8476 v 0.84759 h -0.8476 z"
       style="stroke-width:0.84759718"
       id="path3744" />
    <path
       d="m 381.9504,127.19383 h 0.84759 v 2.5428 h 2.5428 v 0.84759 h -2.5428 v 2.54279 h -0.84759 z m 3.39039,3.39039 h 0.84759 v 2.54279 h -0.84759 z"
       style="stroke-width:0.84759718"
       id="path3746" />
    <path
       d="m 392.12156,132.27942 h -2.54279 v -0.8476 h 2.54279 v -2.54279 h 0.8476 v 4.23798 h -0.8476 z m -3.39039,0.84759 h 3.39039 v 0.8476 h -3.39039 z m 0,-4.23798 h 0.8476 v 2.54279 h -0.8476 z"
       style="stroke-width:0.84759718"
       id="path3748" />
    <path
       d="m 395.51195,133.12701 h 5.93318 v 0.8476 h -5.93318 z"
       style="stroke-width:0.84759718"
       id="path3750" />
    <path
       d="m 403.14033,128.88903 h 3.39038 v 0.8476 h -3.39038 z m -0.8476,0.8476 h 0.8476 v 2.54279 h -0.8476 z m 0.8476,2.54279 h 3.39038 v 0.84759 h -3.39038 z m 3.39038,-2.54279 h 0.8476 v 2.54279 h -0.8476 z"
       style="stroke-width:0.84759718"
       id="path3752" />
    <path
       d="m 409.07351,128.88903 h 3.39038 v 0.8476 h -2.54279 v 3.39038 h -0.84759 z m 3.39038,0.8476 h 0.8476 v 3.39038 h -0.8476 z"
       style="stroke-width:0.84759718"
       id="path3754" />
    <path
       d="m 418.39708,127.19383 h 0.84759 v 5.93318 h -0.84759 z"
       style="stroke-width:0.84759718"
       id="path3756" />
    <path
       d="m 426.02545,132.27942 h -2.54279 v -0.8476 h 2.54279 v -2.54279 h 0.8476 v 4.23798 h -0.8476 z m -3.39039,0.84759 h 3.39039 v 0.8476 h -3.39039 z m 0,-4.23798 h 0.8476 v 2.54279 h -0.8476 z"
       style="stroke-width:0.84759718"
       id="path3758" />
  </g>
  <g
     aria-label="bombchu"
     transform="scale(0.86218492,1.159844)"
     style="font-style:normal;font-variant:normal;font-weight:normal;font-stretch:normal;font-size:15.46458626px;line-height:1.25;font-family:pokemon-font;-inkscape-font-specification:pokemon-font;letter-spacing:0px;word-spacing:0px;fill:#000000;fill-opacity:1;stroke:none;stroke-width:1.15984404"
     id="text1134">
    <path
       d="m 263.47791,153.88205 h 1.15984 v 3.47954 h 4.63938 v 1.15984 h -4.63938 v 2.31969 h 4.63938 v 1.15984 h -5.79922 z m 5.79922,4.63938 h 1.15984 v 2.31969 h -1.15984 z"
       style="font-size:9.27875233px;fill:#ffffff;stroke-width:1.15984404"
       id="path3761" />
    <path
       d="m 273.9165,156.20174 h 4.63938 v 1.15985 h -4.63938 z m -1.15984,1.15985 h 1.15984 v 3.47953 h -1.15984 z m 1.15984,3.47953 h 4.63938 v 1.15984 h -4.63938 z m 4.63938,-3.47953 h 1.15984 v 3.47953 h -1.15984 z"
       style="font-size:9.27875233px;fill:#ffffff;stroke-width:1.15984404"
       id="path3763" />
    <path
       d="m 282.03541,156.20174 h 3.47953 v 1.15985 h -2.31969 v 4.63937 h -1.15984 z m 3.47953,1.15985 h 1.15985 v 4.63937 h -1.15985 z m 3.47953,0 h 1.15985 v 4.63937 h -1.15985 z m -2.31968,-1.15985 h 2.31968 v 1.15985 h -2.31968 z"
       style="font-size:9.27875233px;fill:#ffffff;stroke-width:1.15984404"
       id="path3765" />
    <path
       d="m 291.31416,153.88205 h 1.15985 v 3.47954 h 4.63937 v 1.15984 h -4.63937 v 2.31969 h 4.63937 v 1.15984 h -5.79922 z m 5.79922,4.63938 h 1.15985 v 2.31969 h -1.15985 z"
       style="font-size:9.27875233px;fill:#ffffff;stroke-width:1.15984404"
       id="path3767" />
    <path
       d="m 301.75276,156.20174 h 4.63937 v 1.15985 h -4.63937 z m -1.15985,1.15985 h 1.15985 v 3.47953 h -1.15985 z m 1.15985,3.47953 h 4.63937 v 1.15984 h -4.63937 z m 4.63937,-1.15985 h 1.15985 v 1.15985 h -1.15985 z m 0,-2.31968 h 1.15985 v 1.15984 h -1.15985 z"
       style="font-size:9.27875233px;fill:#ffffff;stroke-width:1.15984404"
       id="path3769" />
    <path
       d="m 309.87167,153.88205 h 1.15984 v 3.47954 h 3.47953 v 1.15984 h -3.47953 v 3.47953 h -1.15984 z m 4.63937,4.63938 h 1.15985 v 3.47953 h -1.15985 z"
       style="font-size:9.27875233px;fill:#ffffff;stroke-width:1.15984404"
       id="path3771" />
    <path
       d="m 320.31027,160.84112 h 3.47953 v -4.63938 h 1.15984 v 5.79922 h -4.63937 z m -1.15985,-4.63938 h 1.15985 v 4.63938 h -1.15985 z"
       style="font-size:9.27875233px;fill:#ffffff;stroke-width:1.15984404"
       id="path3773" />
  </g>
  <g
     aria-label="Everyone_Explodes"
     transform="scale(0.49756467,2.009789)"
     style="font-style:normal;font-variant:normal;font-weight:normal;font-stretch:normal;font-size:6.56342602px;line-height:1.25;font-family:pokemon-font;-inkscape-font-specification:pokemon-font;letter-spacing:0px;word-spacing:0px;fill:#ffffff;fill-opacity:1;stroke:none;stroke-width:0.64535433"
     id="text1138">
    <path
       d="m 455.34283,79.142294 h 5.743 v 0.820429 h -4.92257 v 1.640856 h 4.10214 v 0.820428 h -4.10214 v 1.640857 h 4.92257 v 0.820428 h -5.743 z"
       style="font-size:6.56342602px;stroke-width:0.64535433"
       id="path3776" />
    <path
       d="m 465.18797,80.783151 h 0.82043 v 2.461285 h -0.82043 z m -2.46128,2.461285 h 0.82043 v 0.820428 h -0.82043 z m 0.82043,0.820428 h 0.82043 v 0.820428 h -0.82043 z m -1.64086,-3.281713 h 0.82043 v 2.461285 h -0.82043 z m 2.46129,2.461285 h 0.82042 v 0.820428 h -0.82042 z"
       style="font-size:6.56342602px;stroke-width:0.64535433"
       id="path3778" />
    <path
       d="m 468.46969,81.603579 h 0.82042 v 0.820428 h 3.28172 v -0.820428 h 0.82043 v 1.640857 h -4.10215 v 0.820428 h -0.82042 z m 0.82042,2.461285 h 4.10215 v 0.820428 h -4.10215 z m 0,-3.281713 h 3.28172 v 0.820428 h -3.28172 z"
       style="font-size:6.56342602px;stroke-width:0.64535433"
       id="path3780" />
    <path
       d="m 475.03311,80.783151 h 0.82043 v 1.640856 h 0.82043 v 0.820429 h -0.82043 v 1.640856 h -0.82043 z m 1.64086,0.820428 h 0.82043 v 0.820428 h -0.82043 z m 0.82043,-0.820428 h 2.46128 v 0.820428 h -2.46128 z"
       style="font-size:6.56342602px;stroke-width:0.64535433"
       id="path3782" />
    <path
       d="m 484.87825,84.064864 h -2.46128 v -0.820428 h 2.46128 v -2.461285 h 0.82043 v 4.102141 h -0.82043 z m -3.28171,0.820428 h 3.28171 v 0.820428 h -3.28171 z m 0,-4.102141 h 0.82043 v 2.461285 h -0.82043 z"
       style="font-size:6.56342602px;stroke-width:0.64535433"
       id="path3784" />
    <path
       d="m 488.98039,80.783151 h 3.28172 v 0.820428 h -3.28172 z m -0.82042,0.820428 h 0.82042 v 2.461285 h -0.82042 z m 0.82042,2.461285 h 3.28172 v 0.820428 h -3.28172 z m 3.28172,-2.461285 h 0.82043 v 2.461285 h -0.82043 z"
       style="font-size:6.56342602px;stroke-width:0.64535433"
       id="path3786" />
    <path
       d="m 494.72339,80.783151 h 3.28171 v 0.820428 h -2.46128 v 3.281713 h -0.82043 z m 3.28171,0.820428 h 0.82043 v 3.281713 h -0.82043 z"
       style="font-size:6.56342602px;stroke-width:0.64535433"
       id="path3788" />
    <path
       d="m 501.28682,81.603579 h 0.82042 v 0.820428 h 3.28172 v -0.820428 h 0.82043 v 1.640857 h -4.10215 v 0.820428 h -0.82042 z m 0.82042,2.461285 h 4.10215 v 0.820428 h -4.10215 z m 0,-3.281713 h 3.28172 v 0.820428 h -3.28172 z"
       style="font-size:6.56342602px;stroke-width:0.64535433"
       id="path3790" />
    <path
       d="m 507.85024,84.885292 h 5.743 v 0.820428 h -5.743 z"
       style="font-size:6.56342602px;stroke-width:0.64535433"
       id="path3792" />
    <path
       d="m 514.41367,79.142294 h 5.743 v 0.820429 h -4.92257 v 1.640856 h 4.10214 v 0.820428 h -4.10214 v 1.640857 h 4.92257 v 0.820428 h -5.743 z"
       style="font-size:6.56342602px;stroke-width:0.64535433"
       id="path3794" />
    <path
       d="m 525.07924,84.064864 h 1.64085 v 0.820428 h -1.64085 z m -3.28172,0 h 0.82043 v 0.820428 h -0.82043 z m 0.82043,-0.820428 h 0.82043 v 0.820428 h -0.82043 z m -1.64085,-2.461285 h 1.64085 v 0.820428 h -1.64085 z m 1.64085,0.820428 h 0.82043 v 0.820428 h -0.82043 z m 0.82043,0.820428 h 0.82043 v 0.820429 h -0.82043 z m 0.82043,0.820429 h 0.82043 v 0.820428 h -0.82043 z m 0,-1.640857 h 0.82043 v 0.820428 h -0.82043 z m 0.82043,-0.820428 h 0.82043 v 0.820428 h -0.82043 z"
       style="font-size:6.56342602px;stroke-width:0.64535433"
       id="path3796" />
    <path
       d="m 527.54052,80.783151 h 4.10214 v 0.820428 h -3.28171 v 1.640857 h 3.28171 v 0.820428 h -3.28171 v 1.640856 h -0.82043 z m 4.10214,0.820428 h 0.82043 v 1.640857 h -0.82043 z"
       style="font-size:6.56342602px;stroke-width:0.64535433"
       id="path3798" />
    <path
       d="m 536.56523,79.142294 h 0.82043 v 5.742998 h -0.82043 z"
       style="font-size:6.56342602px;stroke-width:0.64535433"
       id="path3800" />
    <path
       d="m 541.4878,80.783151 h 3.28171 v 0.820428 h -3.28171 z m -0.82043,0.820428 h 0.82043 v 2.461285 h -0.82043 z m 0.82043,2.461285 h 3.28171 v 0.820428 h -3.28171 z m 3.28171,-2.461285 h 0.82043 v 2.461285 h -0.82043 z"
       style="font-size:6.56342602px;stroke-width:0.64535433"
       id="path3802" />
    <path
       d="m 548.05123,84.064864 h 3.28171 v -1.640857 h -3.28171 v -0.820428 h 3.28171 v -2.461285 h 0.82043 v 5.742998 h -4.10214 z m -0.82043,-1.640857 h 0.82043 v 1.640857 h -0.82043 z"
       style="font-size:6.56342602px;stroke-width:0.64535433"
       id="path3804" />
    <path
       d="m 553.79423,81.603579 h 0.82043 v 0.820428 h 3.28171 v -0.820428 h 0.82043 v 1.640857 h -4.10214 v 0.820428 h -0.82043 z m 0.82043,2.461285 h 4.10214 v 0.820428 h -4.10214 z m 0,-3.281713 h 3.28171 v 0.820428 h -3.28171 z"
       style="font-size:6.56342602px;stroke-width:0.64535433"
       id="path3806" />
    <path
       d="m 560.35765,84.064864 h 4.10214 v 0.820428 h -4.10214 z m 0,-2.461285 h 0.82043 v 0.820428 h -0.82043 z m 0.82043,0.820428 h 3.28171 v 0.820429 h -3.28171 z m 3.28171,0.820429 h 0.82043 v 0.820428 h -0.82043 z m -3.28171,-2.461285 h 3.28171 v 0.820428 h -3.28171 z"
       style="font-size:6.56342602px;stroke-width:0.64535433"
       id="path3808" />
  </g>
  <g
     aria-label="Normal_User"
     transform="scale(0.62015562,1.6124985)"
     style="font-style:normal;font-variant:normal;font-weight:normal;font-stretch:normal;font-size:8px;line-height:1.25;font-family:pokemon-font;-inkscape-font-specification:pokemon-font;letter-spacing:0px;word-spacing:0px;fill:#ffffff;fill-opacity:1;stroke:none;stroke-width:0.62015563"
     id="text1142">
    <path
       d="m 371.33167,92.669342 h -1 v -1 h 1 v -5 h 1 v 7 h -1 z m -6,-6 h 1 v 1 h 1 v 1 h -1 v 5 h -1 z m 2,2 h 1 v 1 h -1 z m 1,1 h 1 v 1 h -1 z m 1,1 h 1 v 1 h -1 z"
       style="font-size:8px;stroke-width:0.62015563"
       id="path3811" />
    <path
       d="m 374.33167,88.669342 h 4 v 1 h -4 z m -1,1 h 1 v 3 h -1 z m 1,3 h 4 v 1 h -4 z m 4,-3 h 1 v 3 h -1 z"
       style="font-size:8px;stroke-width:0.62015563"
       id="path3813" />
    <path
       d="m 381.33167,88.669342 h 1 v 2 h 1 v 1 h -1 v 2 h -1 z m 2,1 h 1 v 1 h -1 z m 1,-1 h 3 v 1 h -3 z"
       style="font-size:8px;stroke-width:0.62015563"
       id="path3815" />
    <path
       d="m 389.33167,88.669342 h 3 v 1 h -2 v 4 h -1 z m 3,1 h 1 v 4 h -1 z m 3,0 h 1 v 4 h -1 z m -2,-1 h 2 v 1 h -2 z"
       style="font-size:8px;stroke-width:0.62015563"
       id="path3817" />
    <path
       d="m 398.33167,92.669342 h 3 v -1 h -3 v -1 h 3 v -1 h 1 v 3 h 1 v 1 h -5 z m -1,-1 h 1 v 1 h -1 z m 1,-3 h 3 v 1 h -3 z"
       style="font-size:8px;stroke-width:0.62015563"
       id="path3819" />
    <path
       d="m 408.33167,86.669342 h 1 v 7 h -1 z"
       style="font-size:8px;stroke-width:0.62015563"
       id="path3821" />
    <path
       d="m 413.33167,93.669342 h 7 v 1 h -7 z"
       style="font-size:8px;stroke-width:0.62015563"
       id="path3823" />
    <path
       d="m 423.33167,92.669342 h 4 v -6 h 1 v 7 h -5 z m -1,-1 h 1 v 1 h -1 z m -1,-5 h 1 v 5 h -1 z"
       style="font-size:8px;stroke-width:0.62015563"
       id="path3825" />
    <path
       d="m 429.33167,92.669342 h 5 v 1 h -5 z m 0,-3 h 1 v 1 h -1 z m 1,1 h 4 v 1 h -4 z m 4,1 h 1 v 1 h -1 z m -4,-3 h 4 v 1 h -4 z"
       style="font-size:8px;stroke-width:0.62015563"
       id="path3827" />
    <path
       d="m 437.33167,89.669342 h 1 v 1 h 4 v -1 h 1 v 2 h -5 v 1 h -1 z m 1,3 h 5 v 1 h -5 z m 0,-4 h 4 v 1 h -4 z"
       style="font-size:8px;stroke-width:0.62015563"
       id="path3829" />
    <path
       d="m 445.33167,88.669342 h 1 v 2 h 1 v 1 h -1 v 2 h -1 z m 2,1 h 1 v 1 h -1 z m 1,-1 h 3 v 1 h -3 z"
       style="font-size:8px;stroke-width:0.62015563"
       id="path3831" />
  </g>
  <g
     aria-label="Creative_Nickname"
     transform="scale(0.53297441,1.8762627)"
     style="font-style:normal;font-variant:normal;font-weight:normal;font-stretch:normal;font-size:5.87382221px;line-height:1.25;font-family:pokemon-font;-inkscape-font-specification:pokemon-font;letter-spacing:0px;word-spacing:0px;fill:#ffffff;fill-opacity:1;stroke:none;stroke-width:0.73422778"
     id="text1146">
    <path
       d="m 427.69279,112.51314 h 2.93691 v 0.73423 h -2.93691 z m -0.73423,3.67114 h 0.73423 v 0.73423 h -0.73423 z m -0.73423,-2.20269 h 0.73423 v 2.20269 h -0.73423 z m 1.46846,2.93692 h 2.93691 v 0.73422 h -2.93691 z m -0.73423,-3.67114 h 0.73423 v 0.73422 h -0.73423 z m 3.67114,2.93691 h 0.73423 v 0.73423 h -0.73423 z m 0,-2.93691 h 0.73423 v 0.73422 h -0.73423 z"
       style="stroke-width:0.73422778"
       id="path3834" />
    <path
       d="m 432.09816,113.98159 h 0.73422 v 1.46846 h 0.73423 v 0.73423 h -0.73423 v 1.46845 h -0.73422 z m 1.46845,0.73423 h 0.73423 v 0.73423 h -0.73423 z m 0.73423,-0.73423 h 2.20268 v 0.73423 h -2.20268 z"
       style="stroke-width:0.73422778"
       id="path3836" />
    <path
       d="m 437.97198,114.71582 h 0.73423 v 0.73423 h 2.93691 v -0.73423 h 0.73423 v 1.46846 h -3.67114 v 0.73423 h -0.73423 z m 0.73423,2.20269 h 3.67114 v 0.73422 h -3.67114 z m 0,-2.93692 h 2.93691 v 0.73423 h -2.93691 z"
       style="stroke-width:0.73422778"
       id="path3838" />
    <path
       d="m 444.58003,116.91851 h 2.20268 v -0.73423 h -2.20268 v -0.73423 h 2.20268 v -0.73423 h 0.73423 v 2.20269 h 0.73423 v 0.73422 h -3.67114 z m -0.73423,-0.73423 h 0.73423 v 0.73423 h -0.73423 z m 0.73423,-2.20269 h 2.20268 v 0.73423 h -2.20268 z"
       style="stroke-width:0.73422778"
       id="path3840" />
    <path
       d="m 451.18808,114.71582 h -1.46846 v -0.73423 h 1.46846 v -0.73422 h 0.73423 v 0.73422 h 1.46845 v 0.73423 h -1.46845 v 2.20269 h -0.73423 z m 0.73423,2.20269 h 1.46845 v 0.73422 h -1.46845 z"
       style="stroke-width:0.73422778"
       id="path3842" />
    <path
       d="m 457.79613,114.71582 h 0.73423 v 2.93691 h -0.73423 z m 0,-1.46845 h 0.73423 v 0.73422 h -0.73423 z"
       style="stroke-width:0.73422778"
       id="path3844" />
    <path
       d="m 464.40418,113.98159 h 0.73423 v 2.20269 h -0.73423 z m -2.20268,2.20269 h 0.73423 v 0.73423 h -0.73423 z m 0.73423,0.73423 h 0.73422 v 0.73422 h -0.73422 z m -1.46846,-2.93692 h 0.73423 v 2.20269 h -0.73423 z m 2.20268,2.20269 h 0.73423 v 0.73423 h -0.73423 z"
       style="stroke-width:0.73422778"
       id="path3846" />
    <path
       d="m 467.34109,114.71582 h 0.73423 v 0.73423 h 2.93691 v -0.73423 h 0.73423 v 1.46846 h -3.67114 v 0.73423 h -0.73423 z m 0.73423,2.20269 h 3.67114 v 0.73422 h -3.67114 z m 0,-2.93692 h 2.93691 v 0.73423 h -2.93691 z"
       style="stroke-width:0.73422778"
       id="path3848" />
    <path
       d="m 473.21491,117.65273 h 5.1396 v 0.73423 h -5.1396 z"
       style="stroke-width:0.73422778"
       id="path3850" />
    <path
       d="m 483.4941,116.91851 h -0.73423 v -0.73423 h 0.73423 v -3.67114 h 0.73423 v 5.13959 h -0.73423 z m -4.40537,-4.40537 h 0.73423 v 0.73423 h 0.73423 v 0.73422 h -0.73423 v 3.67114 h -0.73423 z m 1.46846,1.46845 h 0.73423 v 0.73423 h -0.73423 z m 0.73423,0.73423 h 0.73422 v 0.73423 h -0.73422 z m 0.73422,0.73423 h 0.73423 v 0.73423 h -0.73423 z"
       style="stroke-width:0.73422778"
       id="path3852" />
    <path
       d="m 487.16524,114.71582 h 0.73423 v 2.93691 h -0.73423 z m 0,-1.46845 h 0.73423 v 0.73422 h -0.73423 z"
       style="stroke-width:0.73422778"
       id="path3854" />
    <path
       d="m 491.57061,113.98159 h 2.93691 v 0.73423 h -2.93691 z m -0.73423,0.73423 h 0.73423 v 2.20269 h -0.73423 z m 0.73423,2.20269 h 2.93691 v 0.73422 h -2.93691 z m 2.93691,-0.73423 h 0.73423 v 0.73423 h -0.73423 z m 0,-1.46846 h 0.73423 v 0.73423 h -0.73423 z"
       style="stroke-width:0.73422778"
       id="path3856" />
    <path
       d="m 496.71021,112.51314 h 0.73422 v 2.93691 h 0.73423 v 0.73423 h -0.73423 v 1.46845 h -0.73422 z m 1.46845,3.67114 h 1.46846 v 0.73423 h -1.46846 z m 1.46846,0.73423 h 1.46845 v 0.73422 h -1.46845 z m -1.46846,-2.20269 h 1.46846 v 0.73423 h -1.46846 z m 1.46846,-0.73423 h 1.46845 v 0.73423 h -1.46845 z"
       style="stroke-width:0.73422778"
       id="path3858" />
    <path
       d="m 502.58402,113.98159 h 2.93691 v 0.73423 h -2.20268 v 2.93691 h -0.73423 z m 2.93691,0.73423 h 0.73423 v 2.93691 h -0.73423 z"
       style="stroke-width:0.73422778"
       id="path3860" />
    <path
       d="m 509.19208,116.91851 h 2.20268 v -0.73423 h -2.20268 v -0.73423 h 2.20268 v -0.73423 h 0.73423 v 2.20269 h 0.73422 v 0.73422 h -3.67113 z m -0.73423,-0.73423 h 0.73423 v 0.73423 h -0.73423 z m 0.73423,-2.20269 h 2.20268 v 0.73423 h -2.20268 z"
       style="stroke-width:0.73422778"
       id="path3862" />
    <path
       d="m 514.33167,113.98159 h 2.20268 v 0.73423 h -1.46846 v 2.93691 h -0.73422 z m 2.20268,0.73423 h 0.73423 v 2.93691 h -0.73423 z m 2.20268,0 h 0.73423 v 2.93691 h -0.73423 z m -1.46845,-0.73423 h 1.46845 v 0.73423 h -1.46845 z"
       style="stroke-width:0.73422778"
       id="path3864" />
    <path
       d="m 520.20549,114.71582 h 0.73423 v 0.73423 h 2.93691 v -0.73423 h 0.73423 v 1.46846 h -3.67114 v 0.73423 h -0.73423 z m 0.73423,2.20269 h 3.67114 v 0.73422 h -3.67114 z m 0,-2.93692 h 2.93691 v 0.73423 h -2.93691 z"
       style="stroke-width:0.73422778"
       id="path3866" />
  </g>
  <g
     aria-label="Twitchplayspokemon"
     transform="scale(0.52779268,1.8946833)"
     style="font-style:normal;font-variant:normal;font-weight:normal;font-stretch:normal;font-size:6.45446444px;line-height:1.25;font-family:pokemon-font;-inkscape-font-specification:pokemon-font;letter-spacing:0px;word-spacing:0px;fill:#ffffff;fill-opacity:1;stroke:none;stroke-width:0.80680805"
     id="text1150">
    <path
       d="m 431.68461,130.4019 h -2.42042 v -0.8068 h 5.64766 v 0.8068 h -2.42043 v 4.84085 h -0.80681 z"
       style="stroke-width:0.80680805"
       id="path3869" />
    <path
       d="m 440.5595,131.20871 h 0.80681 v 3.22723 h -0.80681 z m -4.03404,3.22723 h 0.80681 v 0.80681 h -0.80681 z m -0.8068,-3.22723 h 0.8068 v 3.22723 h -0.8068 z m 1.61361,2.42043 h 0.80681 v 0.8068 h -0.80681 z m 1.61362,0 h 0.80681 v 0.8068 h -0.80681 z m 0.80681,0.8068 h 0.8068 v 0.80681 h -0.8068 z m -1.61362,-2.42042 h 0.80681 v 1.61362 h -0.80681 z"
       style="stroke-width:0.80680805"
       id="path3871" />
    <path
       d="m 444.59354,132.01552 h 0.80681 v 3.22723 h -0.80681 z m 0,-1.61362 h 0.80681 v 0.80681 h -0.80681 z"
       style="stroke-width:0.80680805"
       id="path3873" />
    <path
       d="m 450.2412,132.01552 h -1.61362 v -0.80681 h 1.61362 v -0.80681 h 0.80681 v 0.80681 h 1.61361 v 0.80681 h -1.61361 v 2.42042 h -0.80681 z m 0.80681,2.42042 h 1.61361 v 0.80681 h -1.61361 z"
       style="stroke-width:0.80680805"
       id="path3875" />
    <path
       d="m 455.88886,131.20871 h 3.22723 v 0.80681 h -3.22723 z m -0.80681,0.80681 h 0.80681 v 2.42042 h -0.80681 z m 0.80681,2.42042 h 3.22723 v 0.80681 h -3.22723 z m 3.22723,-0.8068 h 0.80681 v 0.8068 h -0.80681 z m 0,-1.61362 h 0.80681 v 0.80681 h -0.80681 z"
       style="stroke-width:0.80680805"
       id="path3877" />
    <path
       d="m 461.53651,129.5951 h 0.80681 v 2.42042 h 2.42043 v 0.80681 h -2.42043 v 2.42042 h -0.80681 z m 3.22724,3.22723 h 0.8068 v 2.42042 h -0.8068 z"
       style="stroke-width:0.80680805"
       id="path3879" />
    <path
       d="m 467.99098,131.20871 h 4.03404 v 0.80681 h -3.22723 v 1.61362 h 3.22723 v 0.8068 h -3.22723 v 1.61362 h -0.80681 z m 4.03404,0.80681 h 0.80681 v 1.61362 h -0.80681 z"
       style="stroke-width:0.80680805"
       id="path3881" />
    <path
       d="m 476.86587,129.5951 h 0.8068 v 5.64765 h -0.8068 z"
       style="stroke-width:0.80680805"
       id="path3883" />
    <path
       d="m 481.70671,134.43594 h 2.42043 v -0.8068 h -2.42043 v -0.80681 h 2.42043 v -0.80681 h 0.80681 v 2.42042 h 0.8068 v 0.80681 h -4.03404 z m -0.8068,-0.8068 h 0.8068 v 0.8068 h -0.8068 z m 0.8068,-2.42043 h 2.42043 v 0.80681 h -2.42043 z"
       style="stroke-width:0.80680805"
       id="path3885" />
    <path
       d="m 490.5816,134.43594 h -2.42042 v -0.8068 h 2.42042 v -2.42043 h 0.80681 v 4.03404 h -0.80681 z m -3.22723,0.80681 h 3.22723 v 0.80681 h -3.22723 z m 0,-4.03404 h 0.80681 v 2.42043 h -0.80681 z"
       style="stroke-width:0.80680805"
       id="path3887" />
    <path
       d="m 493.80884,134.43594 h 4.03404 v 0.80681 h -4.03404 z m 0,-2.42042 h 0.80681 v 0.80681 h -0.80681 z m 0.80681,0.80681 h 3.22723 v 0.80681 h -3.22723 z m 3.22723,0.80681 h 0.80681 v 0.8068 h -0.80681 z m -3.22723,-2.42043 h 3.22723 v 0.80681 h -3.22723 z"
       style="stroke-width:0.80680805"
       id="path3889" />
    <path
       d="m 500.2633,131.20871 h 4.03404 v 0.80681 h -3.22723 v 1.61362 h 3.22723 v 0.8068 h -3.22723 v 1.61362 h -0.80681 z m 4.03404,0.80681 h 0.80681 v 1.61362 h -0.80681 z"
       style="stroke-width:0.80680805"
       id="path3891" />
    <path
       d="m 507.52457,131.20871 h 3.22724 v 0.80681 h -3.22724 z m -0.8068,0.80681 h 0.8068 v 2.42042 h -0.8068 z m 0.8068,2.42042 h 3.22724 v 0.80681 h -3.22724 z m 3.22724,-2.42042 h 0.8068 v 2.42042 h -0.8068 z"
       style="stroke-width:0.80680805"
       id="path3893" />
    <path
       d="m 513.17223,129.5951 h 0.8068 v 3.22723 h 0.80681 v 0.80681 h -0.80681 v 1.61361 h -0.8068 z m 1.61361,4.03404 h 1.61362 v 0.8068 h -1.61362 z m 1.61362,0.8068 h 1.61361 v 0.80681 h -1.61361 z m -1.61362,-2.42042 h 1.61362 v 0.80681 h -1.61362 z m 1.61362,-0.80681 h 1.61361 v 0.80681 h -1.61361 z"
       style="stroke-width:0.80680805"
       id="path3895" />
    <path
       d="m 519.62669,132.01552 h 0.80681 v 0.80681 h 3.22723 v -0.80681 h 0.80681 v 1.61362 h -4.03404 v 0.8068 h -0.80681 z m 0.80681,2.42042 h 4.03404 v 0.80681 h -4.03404 z m 0,-3.22723 h 3.22723 v 0.80681 h -3.22723 z"
       style="stroke-width:0.80680805"
       id="path3897" />
    <path
       d="m 526.08115,131.20871 h 2.42043 v 0.80681 h -1.61362 v 3.22723 h -0.80681 z m 2.42043,0.80681 h 0.80681 v 3.22723 h -0.80681 z m 2.42042,0 h 0.80681 v 3.22723 H 530.922 Z m -1.61361,-0.80681 h 1.61361 v 0.80681 h -1.61361 z"
       style="stroke-width:0.80680805"
       id="path3899" />
    <path
       d="m 533.34243,131.20871 h 3.22723 v 0.80681 h -3.22723 z m -0.80681,0.80681 h 0.80681 v 2.42042 h -0.80681 z m 0.80681,2.42042 h 3.22723 v 0.80681 h -3.22723 z m 3.22723,-2.42042 h 0.80681 v 2.42042 h -0.80681 z"
       style="stroke-width:0.80680805"
       id="path3901" />
    <path
       d="m 538.99009,131.20871 h 3.22723 v 0.80681 h -2.42042 v 3.22723 h -0.80681 z m 3.22723,0.80681 h 0.80681 v 3.22723 h -0.80681 z"
       style="stroke-width:0.80680805"
       id="path3903" />
  </g>
  <path
     style="fill:#ffffff;fill-opacity:1;stroke:#000000"
     d="m 46.072168,77.947914 a 7.5520835,7.5520835 0 0 1 -7.552084,7.552084 7.5520835,7.5520835 0 0 1 -7.552083,-7.552084 7.5520835,7.5520835 0 0 1 7.552083,-7.552083 7.5520835,7.5520835 0 0 1 7.552084,7.552083 z"
     id="path1154" />
  <path
     style="fill:#ffffff;fill-opacity:1;stroke:#000000"
     d="m 66.156251,77.947914 a 7.5520835,7.5520835 0 0 1 -7.552083,7.552084 7.5520835,7.5520835 0 0 1 -7.552084,-7.552084 7.5520835,7.5520835 0 0 1 7.552084,-7.552083 7.5520835,7.5520835 0 0 1 7.552083,7.552083 z"
     id="path1154-5" />
  <g
     aria-label="Screenshot not available due to copyrght"
     transform="scale(1.1979636,0.8347499)"
     style="font-style:normal;font-variant:normal;font-weight:normal;font-stretch:normal;font-size:19.80628395px;line-height:1.25;font-family:'Comic Sans MS';-inkscape-font-specification:'Comic Sans MS';text-align:center;letter-spacing:0px;word-spacing:0px;text-anchor:middle;fill:#000000;fill-opacity:1;stroke:none;stroke-width:0.74273556"
     id="text2906">
    <path
       d="m 46.839546,185.27258 q -0.0097,-0.40619 0.270789,-0.65763 0.290131,-0.26112 0.705986,-0.26112 0.47388,0 0.831709,0.54158 0.493223,0.73499 0.880064,0.99611 0.822038,0.54158 2.388746,0.54158 1.499011,0 2.785259,-0.64796 1.644076,-0.83171 1.644076,-2.31138 0,-1.21855 -1.382958,-1.92453 -1.170196,-0.60928 -2.89164,-0.65763 -1.528024,-0.058 -2.601509,-0.66731 -1.373287,-0.78335 -1.373287,-2.24368 0,-1.72144 1.953549,-3.14308 1.86651,-1.34428 3.858744,-1.34428 0.93809,0 2.117957,0.31915 1.566708,0.41585 1.566708,1.06381 0,0.85105 -0.870393,0.85105 -0.386842,0 -1.353946,-0.20309 -0.967103,-0.21276 -1.49901,-0.20309 -1.508682,0.0193 -2.562825,0.74467 -1.083156,0.74467 -1.083156,1.80848 0,0.8027 1.431313,1.13151 0.531907,0.12573 2.059931,0.23211 2.214668,0.16441 3.462231,1.39263 1.141183,1.12184 1.141183,2.7369 0,2.30171 -2.127628,3.675 -1.847168,1.18953 -4.28427,1.18953 -1.7698,0 -3.239797,-0.67697 -1.798813,-0.83171 -1.827826,-2.28236 z"
       style="text-align:center;text-anchor:middle;stroke-width:0.74273556"
       id="path3067" />
    <path
       d="m 64.992083,188.28994 q -1.982563,0 -3.307495,-1.19921 -1.392629,-1.25723 -1.392629,-3.31716 0,-1.96323 1.30559,-4.05217 1.450655,-2.32105 3.26881,-2.32105 0.947762,0 2.117957,0.44487 1.479669,0.57059 1.479669,1.39263 0,0.3675 -0.241776,0.65763 -0.241776,0.28046 -0.599604,0.28046 -0.28046,0 -0.493223,-0.16441 -0.203092,-0.17408 -0.396513,-0.33848 -0.570591,-0.45454 -1.86651,-0.45454 -0.986446,0 -1.953549,1.76013 -0.880065,1.61506 -0.880065,2.79493 0,1.27657 0.870394,2.01157 0.812367,0.68664 2.088944,0.68664 0.580262,0 1.237892,-0.30947 l 1.121841,-0.5996 q 0.290131,-0.15474 0.415854,-0.15474 0.357829,0 0.618947,0.29013 0.261118,0.28046 0.261118,0.64796 0,0.70599 -1.48934,1.36362 -1.30559,0.58026 -2.166312,0.58026 z"
       style="text-align:center;text-anchor:middle;stroke-width:0.74273556"
       id="path3069" />
    <path
       d="m 78.318771,180.53377 q -0.0677,1.20888 -0.967104,1.20888 -0.831709,0 -0.831709,-0.95744 0,-0.18375 -0.02901,-0.67697 l -0.02901,-0.81237 q -1.528024,0.18375 -2.446773,0.86073 -0.860722,0.62861 -1.431313,1.89552 l 0.01934,5.29973 q 0,0.97677 -0.957433,0.97677 -0.851051,0 -0.851051,-0.97677 v -6.78907 q 0,-0.31914 0.01934,-0.95743 0.02901,-0.63829 0.02901,-0.95743 0,-0.97678 0.851052,-0.97678 0.947761,0 0.957432,1.60539 1.856839,-1.78914 4.119862,-1.78914 0.783354,0 1.170196,0.58993 0.386841,0.58994 0.386841,1.77948 0,0.50289 -0.0097,0.67697 z"
       style="text-align:center;text-anchor:middle;stroke-width:0.74273556"
       id="path3071" />
    <path
       d="m 84.827379,188.12553 q -2.185655,0 -3.5396,-1.09283 -1.479669,-1.20888 -1.479669,-3.38486 0,-2.51447 1.218551,-4.21657 1.324932,-1.85684 3.5396,-1.85684 1.605392,0 2.620851,0.54158 1.247563,0.6673 1.247563,2.05026 0,0.9671 -1.092827,1.76013 -0.483552,0.34815 -2.05026,1.08315 l -3.694336,1.75046 q 0.541578,0.8027 1.344274,1.20888 0.812368,0.40618 1.885853,0.40618 0.667301,0 1.566708,-0.25144 1.141182,-0.31915 1.469997,-0.83171 0.328816,-0.52224 0.705986,-0.52224 0.338486,0 0.599604,0.26112 0.270789,0.25145 0.270789,0.58993 0,1.07349 -1.731115,1.84717 -1.479669,0.65763 -2.881969,0.65763 z m -0.261118,-8.81031 q -1.179867,0 -1.963221,0.91875 -0.783354,0.90907 -1.170195,2.74657 l 2.969008,-1.41197 q 1.750458,-0.85105 2.495128,-1.47967 -0.83171,-0.77368 -2.33072,-0.77368 z"
       style="text-align:center;text-anchor:middle;stroke-width:0.74273556"
       id="path3073" />
    <path
       d="m 95.697626,188.12553 q -2.185655,0 -3.5396,-1.09283 -1.479669,-1.20888 -1.479669,-3.38486 0,-2.51447 1.218551,-4.21657 1.324932,-1.85684 3.5396,-1.85684 1.605392,0 2.620851,0.54158 1.247563,0.6673 1.247563,2.05026 0,0.9671 -1.092827,1.76013 -0.483552,0.34815 -2.05026,1.08315 l -3.694336,1.75046 q 0.541578,0.8027 1.344274,1.20888 0.812367,0.40618 1.885853,0.40618 0.667301,0 1.566708,-0.25144 1.141182,-0.31915 1.469997,-0.83171 0.328815,-0.52224 0.705986,-0.52224 0.338486,0 0.599603,0.26112 0.27079,0.25145 0.27079,0.58993 0,1.07349 -1.731115,1.84717 -1.479669,0.65763 -2.881969,0.65763 z m -0.261118,-8.81031 q -1.179867,0 -1.963221,0.91875 -0.783354,0.90907 -1.170196,2.74657 l 2.969009,-1.41197 q 1.750458,-0.85105 2.495127,-1.47967 -0.831709,-0.77368 -2.330719,-0.77368 z"
       style="text-align:center;text-anchor:middle;stroke-width:0.74273556"
       id="path3075" />
    <path
       d="m 109.46918,188.36731 q -0.83171,0 -0.93809,-0.90908 l -0.27079,-2.11796 q -0.13539,-1.13151 -0.13539,-2.11795 0,-0.27079 0.029,-0.91875 0.0387,-0.64796 0.0387,-0.91875 0,-2.08895 -0.77369,-2.08895 -1.08315,0 -2.0696,1.28625 -0.88973,1.1702 -1.39263,2.95934 -0.0193,0.37717 -0.087,0.94776 -0.058,0.48355 -0.058,0.93809 0,0.29013 0.058,0.8704 0.058,0.58026 0.058,0.87039 0,0.4352 -0.27079,0.70598 -0.26112,0.27079 -0.67697,0.27079 -0.42553,0 -0.68665,-0.27079 -0.26111,-0.27078 -0.26111,-0.70598 0,-0.29013 -0.0677,-0.87039 -0.058,-0.58027 -0.058,-0.8704 0,-0.99611 0.1354,-2.75624 0.14506,-1.7698 0.14506,-2.76592 0,-0.30947 -0.0387,-0.91875 -0.029,-0.60927 -0.029,-0.91875 0,-0.41585 0.27078,-0.67697 0.28046,-0.27079 0.68665,-0.27079 0.88973,0 0.97677,1.25724 l 0.029,1.13151 q 1.62473,-2.16631 3.3365,-2.16631 1.54737,0 2.15664,1.36361 0.41586,0.90908 0.45454,2.68855 v 0.97677 l -0.01,0.89941 q 0,0.8027 0.20309,2.07927 0.21277,1.26691 0.21277,2.05994 0,0.42552 -0.28046,0.68664 -0.27079,0.27079 -0.68665,0.27079 z"
       style="text-align:center;text-anchor:middle;stroke-width:0.74273556"
       id="path3077" />
    <path
       d="m 118.9468,180.23397 q -0.53191,0 -0.74467,-0.35783 -0.14507,-0.25145 -0.25145,-1.04447 -0.72533,0.18374 -2.23401,0.67697 -1.55704,0.61894 -1.56671,1.52802 0.29013,0.10638 0.57059,0.15474 2.22434,0.39651 3.3075,1.09283 1.57638,1.01545 1.57638,2.93999 0,1.57638 -1.36362,2.37908 -1.13151,0.65763 -2.86263,0.65763 -1.2669,0 -2.41776,-0.42553 -1.48934,-0.54158 -1.48934,-1.50868 0,-0.38684 0.29981,-0.67697 0.30947,-0.29013 0.69631,-0.29013 0.2998,0 0.77368,0.4642 0.23211,0.22244 1.04448,0.3675 0.64796,0.11606 1.09282,0.11606 0.81237,0 1.43132,-0.19342 0.8994,-0.28046 0.8994,-0.88974 0,-1.31526 -1.83749,-1.77947 l -1.00579,-0.22243 q -1.28625,-0.28046 -1.82783,-0.65763 -0.78335,-0.54158 -0.78335,-1.63441 0,-2.02125 1.90519,-2.88197 0.58026,-0.26112 1.85684,-0.61895 1.27658,-0.36749 1.82783,-0.61894 0.39651,-0.17408 0.86072,-0.17408 0.41585,0 0.67697,0.27079 0.27079,0.27079 0.27079,0.70598 0,0.28046 0.11605,0.82204 0.12573,0.54158 0.12573,0.82204 0,0.4352 -0.27079,0.70599 -0.26112,0.27079 -0.67697,0.27079 z"
       style="text-align:center;text-anchor:middle;stroke-width:0.74273556"
       id="path3079" />
    <path
       d="m 130.14586,188.28027 q -0.68665,0 -0.89941,-0.735 -0.22243,-0.79303 -0.40618,-2.25335 -0.17408,-1.4023 -0.17408,-2.30171 0,-0.25145 0.0193,-0.76401 0.029,-0.51257 0.029,-0.76401 0,-1.81816 -0.90908,-1.81816 -1.22822,0 -2.19533,1.11217 -0.49322,0.57059 -1.35394,2.17598 0,3.68467 -0.30948,4.36164 -0.27079,0.59961 -0.84138,0.59961 -0.39651,0 -0.69631,-0.27079 -0.2998,-0.27079 -0.2998,-0.65763 0,-0.1354 0.087,-0.42553 0.0774,-0.24177 0.10638,-1.41197 l 0.029,-1.43131 0.029,-7.10822 q 0.0677,-1.1992 0.0677,-1.61506 0,-0.49322 -0.0967,-0.92842 -0.087,-0.44487 -0.087,-0.91875 0,-0.40618 0.28046,-0.6673 0.28046,-0.27079 0.68664,-0.27079 0.79303,0 0.92842,0.85105 0.15474,0.93809 0.15474,1.69244 0,1.01545 -0.0677,2.11795 -0.058,1.05415 -0.0483,2.11796 l 0.01,0.85105 q 0.79302,-1.06381 1.69243,-1.58605 0.90908,-0.53191 1.92454,-0.53191 1.60539,0 2.20499,1.04448 0.42553,0.73499 0.48356,2.47578 l 0.0774,1.84717 0.19342,2.01158 q 0.1354,1.13151 0.32882,1.99223 0.0387,0.16441 0.0387,0.28046 0,0.39651 -0.29013,0.65763 -0.29013,0.27079 -0.69631,0.27079 z"
       style="text-align:center;text-anchor:middle;stroke-width:0.74273556"
       id="path3081" />
    <path
       d="m 137.12835,188.25126 q -1.62474,0 -2.79493,-1.19921 -1.30559,-1.33461 -1.37329,-3.58796 -0.058,-2.18565 1.1025,-3.84907 1.35394,-1.96322 3.7717,-1.96322 1.93421,0 2.93033,1.7698 0.79302,1.43131 0.76401,3.44289 -0.029,2.14697 -1.12184,3.66532 -1.23789,1.72145 -3.27848,1.72145 z m 0.58026,-8.63624 q -1.42164,-0.01 -2.21467,1.35394 -0.62862,1.09283 -0.62862,2.49513 0,1.4023 0.76402,2.18566 0.63829,0.64796 1.49901,0.64796 1.00579,0 1.73111,-0.735 0.82204,-0.81237 0.8704,-2.19533 0.13539,-3.74269 -2.02125,-3.75236 z"
       style="text-align:center;text-anchor:middle;stroke-width:0.74273556"
       id="path3083" />
    <path
       d="m 150.37767,179.44094 q -0.20309,0 -0.48355,-0.0193 -0.27079,-0.0193 -0.47388,-0.0193 -0.22244,0 -1.31526,0.14506 l 0.18374,5.71558 0.01,0.42553 0.01,0.49322 q 0.0387,2.11796 -1.01546,2.11796 -0.38684,0 -0.67697,-0.25145 -0.28046,-0.25144 -0.28046,-0.62861 0,-0.3675 0.029,-1.1025 0.029,-0.735 0.029,-1.1025 l -0.19342,-5.64789 q -0.70598,-0.029 -2.14697,-0.1644 -0.86072,-0.11606 -0.86072,-0.95744 0,-0.42552 0.26112,-0.70598 0.26111,-0.28046 0.6673,-0.28046 l 2.03092,0.16441 q 0,-0.49323 -0.0484,-1.31527 -0.0387,-0.8317 -0.0387,-1.1992 0,-0.40619 0.28046,-0.66731 0.28046,-0.27078 0.68664,-0.27078 0.87039,0 1.01546,1.42164 0.029,0.35783 0.029,0.86072 l -0.0193,0.56092 -0.01,0.5996 q 1.19921,-0.15473 1.37329,-0.15473 1.00578,0 1.31526,0.0967 0.58993,0.19342 0.58993,0.90908 0,0.42552 -0.27079,0.70598 -0.26112,0.27079 -0.67697,0.27079 z"
       style="text-align:center;text-anchor:middle;stroke-width:0.74273556"
       id="path3085" />
    <path
       d="m 49.934278,213.12516 q -0.83171,0 -0.938091,-0.90907 l -0.270789,-2.11796 q -0.135395,-1.13151 -0.135395,-2.11796 0,-0.27079 0.02901,-0.91875 0.03868,-0.64796 0.03868,-0.91875 0,-2.08894 -0.773683,-2.08894 -1.083156,0 -2.069602,1.28625 -0.889736,1.17019 -1.392629,2.95934 -0.01934,0.37717 -0.08704,0.94776 -0.05803,0.48355 -0.05803,0.93809 0,0.29013 0.05803,0.87039 0.05803,0.58026 0.05803,0.87039 0,0.4352 -0.270789,0.70599 -0.261118,0.27079 -0.676972,0.27079 -0.425526,0 -0.686644,-0.27079 -0.261118,-0.27079 -0.261118,-0.70599 0,-0.29013 -0.0677,-0.87039 -0.05803,-0.58026 -0.05803,-0.87039 0,-0.99612 0.135394,-2.75625 0.145066,-1.7698 0.145066,-2.76591 0,-0.30948 -0.03868,-0.91875 -0.02901,-0.60928 -0.02901,-0.91875 0,-0.41586 0.27079,-0.67697 0.28046,-0.27079 0.686643,-0.27079 0.889736,0 0.976775,1.25723 l 0.02901,1.13151 q 1.624734,-2.16631 3.336508,-2.16631 1.547366,0 2.156641,1.36362 0.415855,0.90907 0.454539,2.68854 v 0.97678 l -0.0097,0.89941 q 0,0.80269 0.203092,2.07927 0.212762,1.2669 0.212762,2.05993 0,0.42553 -0.28046,0.68664 -0.270789,0.27079 -0.686643,0.27079 z"
       style="text-align:center;text-anchor:middle;stroke-width:0.74273556"
       id="path3087" />
    <path
       d="m 56.510583,213.00911 q -1.624735,0 -2.79493,-1.19921 -1.30559,-1.3346 -1.373287,-3.58795 -0.05803,-2.18566 1.102498,-3.84908 1.353945,-1.96322 3.771704,-1.96322 1.934208,0 2.930325,1.7698 0.793025,1.43132 0.764012,3.44289 -0.02901,2.14697 -1.121841,3.66533 -1.237893,1.72144 -3.278481,1.72144 z m 0.580262,-8.63624 q -1.421643,-0.01 -2.214668,1.35395 -0.628617,1.09283 -0.628617,2.49513 0,1.4023 0.764012,2.18565 0.638288,0.64796 1.499011,0.64796 1.005788,0 1.731115,-0.735 0.822038,-0.81237 0.870394,-2.19532 0.135394,-3.74269 -2.021247,-3.75237 z"
       style="text-align:center;text-anchor:middle;stroke-width:0.74273556"
       id="path3089" />
    <path
       d="m 69.759904,204.1988 q -0.203092,0 -0.483552,-0.0194 -0.270789,-0.0193 -0.473881,-0.0193 -0.222434,0 -1.315261,0.14507 l 0.18375,5.71558 0.0097,0.42553 0.0097,0.49322 q 0.03868,2.11796 -1.015459,2.11796 -0.386841,0 -0.676973,-0.25145 -0.28046,-0.25145 -0.28046,-0.62862 0,-0.3675 0.02901,-1.1025 0.02901,-0.735 0.02901,-1.1025 l -0.193421,-5.64788 q -0.705986,-0.029 -2.14697,-0.16441 -0.860723,-0.11605 -0.860723,-0.95743 0,-0.42553 0.261118,-0.70599 0.261118,-0.28046 0.667302,-0.28046 l 2.030918,0.16441 q 0,-0.49322 -0.04836,-1.31526 -0.03869,-0.83171 -0.03869,-1.19921 0,-0.40618 0.28046,-0.6673 0.280461,-0.27079 0.686644,-0.27079 0.870393,0 1.015459,1.42164 0.02901,0.35783 0.02901,0.86072 l -0.01934,0.56093 -0.0097,0.5996 q 1.199209,-0.15474 1.373287,-0.15474 1.005788,0 1.315261,0.0967 0.589934,0.19342 0.589934,0.90908 0,0.42553 -0.270789,0.70599 -0.261118,0.27079 -0.676973,0.27079 z"
       style="text-align:center;text-anchor:middle;stroke-width:0.74273556"
       id="path3091" />
    <path
       d="m 86.084614,213.07681 q -0.183749,0 -0.667301,-0.42553 -0.435197,-0.39651 -0.64796,-0.70598 -0.928419,0.50289 -1.634405,0.75434 -0.705986,0.26112 -1.179866,0.26112 -2.263023,0 -3.297824,-1.27658 -0.976775,-1.19921 -0.976775,-3.675 0,-2.34039 1.605392,-4.00381 1.615063,-1.66341 3.849073,-1.66341 0.84138,0 1.885852,0.43519 1.315261,0.54158 1.315261,1.30559 0,0.26112 -0.19342,0.46421 -0.09671,0.3675 -0.154737,1.20888 -0.04836,0.84138 -0.05803,2.15664 -0.0097,1.19921 0.164407,1.89553 0.09671,0.42552 0.609276,1.7021 0.0677,0.17408 0.222434,0.51256 l 0.05803,0.16441 q 0,0.38684 -0.270789,0.63829 -0.270789,0.25145 -0.628618,0.25145 z m -2.011575,-6.72137 q 0,-0.41586 0.04836,-0.89941 0.05803,-0.49322 0.164407,-1.04447 -0.357828,-0.18375 -0.618946,-0.27079 -0.251447,-0.087 -0.406183,-0.087 -1.499011,0 -2.591838,1.22822 -1.083157,1.21855 -1.083157,2.81427 0,1.58605 0.560921,2.37908 0.56092,0.79302 1.68276,0.79302 0.92842,0 1.576379,-0.33848 0.348157,-0.18375 0.976775,-0.735 -0.309473,-2.56283 -0.309473,-3.8394 z"
       style="text-align:center;text-anchor:middle;stroke-width:0.74273556"
       id="path3093" />
    <path
       d="m 93.125129,211.93563 q -0.02901,0.88973 -0.880065,0.88973 -0.705985,0 -1.02513,-0.83171 l -1.479668,-3.92644 -1.721445,-4.43901 q -0.09671,-0.25144 -0.09671,-0.44486 0,-0.39652 0.299802,-0.67698 0.299802,-0.28046 0.696315,-0.28046 0.580262,0 0.831709,0.58994 l 2.456443,6.76005 q 0.725328,-1.54736 1.827826,-4.48736 0.261118,-0.77368 0.822038,-2.18565 0.299803,-0.61895 0.851052,-0.61895 0.396512,0 0.696314,0.28046 0.299802,0.28046 0.299802,0.6673 0,0.3675 -1.595721,4.13921 z"
       style="text-align:center;text-anchor:middle;stroke-width:0.74273556"
       id="path3095" />
    <path
       d="m 105.85222,213.07681 q -0.18375,0 -0.66731,-0.42553 -0.43519,-0.39651 -0.64796,-0.70598 -0.92842,0.50289 -1.6344,0.75434 -0.70599,0.26112 -1.17987,0.26112 -2.26302,0 -3.297821,-1.27658 -0.976775,-1.19921 -0.976775,-3.675 0,-2.34039 1.605392,-4.00381 1.615064,-1.66341 3.849074,-1.66341 0.84138,0 1.88585,0.43519 1.31526,0.54158 1.31526,1.30559 0,0.26112 -0.19342,0.46421 -0.0967,0.3675 -0.15474,1.20888 -0.0483,0.84138 -0.058,2.15664 -0.01,1.19921 0.16441,1.89553 0.0967,0.42552 0.60927,1.7021 0.0677,0.17408 0.22244,0.51256 l 0.058,0.16441 q 0,0.38684 -0.27079,0.63829 -0.27079,0.25145 -0.62861,0.25145 z m -2.01158,-6.72137 q 0,-0.41586 0.0484,-0.89941 0.058,-0.49322 0.16441,-1.04447 -0.35783,-0.18375 -0.61894,-0.27079 -0.25145,-0.087 -0.40619,-0.087 -1.49901,0 -2.59184,1.22822 -1.083152,1.21855 -1.083152,2.81427 0,1.58605 0.560921,2.37908 0.560921,0.79302 1.682761,0.79302 0.92842,0 1.57638,-0.33848 0.34816,-0.18375 0.97677,-0.735 -0.30947,-2.56283 -0.30947,-3.8394 z"
       style="text-align:center;text-anchor:middle;stroke-width:0.74273556"
       id="path3097" />
    <path
       d="m 110.28155,200.19499 q -0.46421,0 -0.8027,-0.32882 -0.33849,-0.32881 -0.33849,-0.79302 0,-0.46421 0.33849,-0.79303 0.33849,-0.32881 0.8027,-0.32881 0.46421,0 0.79302,0.32881 0.33849,0.32882 0.33849,0.79303 0,0.46421 -0.33849,0.79302 -0.32881,0.32882 -0.79302,0.32882 z m 0.43519,7.85288 q 0,0.58026 0.029,1.74078 0.0387,1.15086 0.0387,1.73112 0,0.42553 -0.26112,0.69632 -0.26112,0.27078 -0.68664,0.27078 -0.41586,0 -0.68665,-0.27078 -0.26111,-0.27079 -0.26111,-0.69632 0,-0.58026 -0.0387,-1.73112 -0.029,-1.16052 -0.029,-1.74078 0,-0.90908 0.0967,-2.26302 0.0967,-1.36362 0.0967,-2.2727 0,-0.43519 0.26112,-0.70598 0.27079,-0.27079 0.68664,-0.27079 0.41586,0 0.67697,0.27079 0.27079,0.27079 0.27079,0.70598 0,0.90908 -0.0967,2.2727 -0.0967,1.35394 -0.0967,2.26302 z"
       style="text-align:center;text-anchor:middle;stroke-width:0.74273556"
       id="path3099" />
    <path
       d="m 116.46134,204.83708 -0.14507,4.80651 q 0,0.76401 -0.0774,2.24368 -0.0967,0.9671 -0.94777,0.9671 -0.94776,0 -0.94776,-0.98644 0,-1.1702 0.10638,-3.51059 0.10639,-2.35006 0.10639,-3.52026 0,-1.52802 0.0483,-3.49124 0.0484,-1.97289 0.0484,-3.50092 0,-0.9671 0.94776,-0.9671 0.95743,0 0.95743,0.9671 0,1.52803 -0.0484,3.50092 -0.0483,1.96322 -0.0483,3.49124 z"
       style="text-align:center;text-anchor:middle;stroke-width:0.74273556"
       id="path3101" />
    <path
       d="m 126.97376,213.07681 q -0.18375,0 -0.6673,-0.42553 -0.4352,-0.39651 -0.64796,-0.70598 -0.92842,0.50289 -1.6344,0.75434 -0.70599,0.26112 -1.17987,0.26112 -2.26302,0 -3.29782,-1.27658 -0.97678,-1.19921 -0.97678,-3.675 0,-2.34039 1.60539,-4.00381 1.61507,-1.66341 3.84908,-1.66341 0.84138,0 1.88585,0.43519 1.31526,0.54158 1.31526,1.30559 0,0.26112 -0.19342,0.46421 -0.0967,0.3675 -0.15474,1.20888 -0.0483,0.84138 -0.058,2.15664 -0.01,1.19921 0.1644,1.89553 0.0967,0.42552 0.60928,1.7021 0.0677,0.17408 0.22243,0.51256 l 0.058,0.16441 q 0,0.38684 -0.27079,0.63829 -0.27079,0.25145 -0.62862,0.25145 z m -2.01157,-6.72137 q 0,-0.41586 0.0483,-0.89941 0.058,-0.49322 0.16441,-1.04447 -0.35783,-0.18375 -0.61895,-0.27079 -0.25144,-0.087 -0.40618,-0.087 -1.49901,0 -2.59184,1.22822 -1.08315,1.21855 -1.08315,2.81427 0,1.58605 0.56092,2.37908 0.56092,0.79302 1.68276,0.79302 0.92842,0 1.57638,-0.33848 0.34815,-0.18375 0.97677,-0.735 -0.30947,-2.56283 -0.30947,-3.8394 z"
       style="text-align:center;text-anchor:middle;stroke-width:0.74273556"
       id="path3103" />
    <path
       d="m 134.0723,212.8447 q -1.47966,0 -2.68854,-0.58026 -0.30948,0.46421 -0.75435,0.46421 -0.36749,0 -0.62861,-0.26112 -0.25145,-0.25144 -0.25145,-0.63829 0,-0.25144 0.0193,-0.74467 0.029,-0.49322 0.029,-0.74467 0,-1.02513 -0.058,-3.06571 -0.0484,-2.05026 -0.0484,-3.07539 0,-0.70599 0.01,-2.66921 0.01,-1.97289 0.01,-2.68855 0,-0.58026 0.24177,-1.04447 0.31915,-0.58993 0.88007,-0.58993 0.72532,0 0.72532,0.84138 0,0.13539 -0.0483,0.39651 -0.0484,0.26112 -0.0484,0.39651 l -0.029,2.11796 -0.0193,2.46611 q 0.84138,-0.57059 1.59572,-0.85105 0.76401,-0.29013 1.43131,-0.29013 2.07928,0 3.3752,1.59572 1.21855,1.49901 1.21855,3.68467 0,2.20499 -1.42165,3.74269 -1.42164,1.53769 -3.5396,1.53769 z m 0.3675,-8.73294 q -0.79302,0 -1.62473,0.44486 -0.40618,0.22244 -1.39263,0.95744 l -0.0193,1.67309 0.01,1.50868 0.01,1.58605 q 0.46421,0.21276 1.30559,0.54158 0.5996,0.18375 1.34427,0.18375 1.4023,0 2.30171,-0.98645 0.89941,-0.98645 0.89941,-2.45644 0,-1.44099 -0.72533,-2.40809 -0.78335,-1.04447 -2.10829,-1.04447 z"
       style="text-align:center;text-anchor:middle;stroke-width:0.74273556"
       id="path3105" />
    <path
       d="m 143.77235,204.83708 -0.14506,4.80651 q 0,0.76401 -0.0774,2.24368 -0.0967,0.9671 -0.94776,0.9671 -0.94777,0 -0.94777,-0.98644 0,-1.1702 0.10639,-3.51059 0.10638,-2.35006 0.10638,-3.52026 0,-1.52802 0.0483,-3.49124 0.0484,-1.97289 0.0484,-3.50092 0,-0.9671 0.94776,-0.9671 0.95743,0 0.95743,0.9671 0,1.52803 -0.0483,3.50092 -0.0484,1.96322 -0.0484,3.49124 z"
       style="text-align:center;text-anchor:middle;stroke-width:0.74273556"
       id="path3107" />
    <path
       d="m 151.24806,212.88339 q -2.18565,0 -3.5396,-1.09283 -1.47967,-1.20888 -1.47967,-3.38486 0,-2.51447 1.21855,-4.21658 1.32494,-1.85683 3.5396,-1.85683 1.6054,0 2.62086,0.54157 1.24756,0.6673 1.24756,2.05026 0,0.96711 -1.09283,1.76013 -0.48355,0.34816 -2.05026,1.08316 l -3.69433,1.75046 q 0.54157,0.80269 1.34427,1.20888 0.81237,0.40618 1.88585,0.40618 0.6673,0 1.56671,-0.25145 1.14118,-0.31914 1.47,-0.83171 0.32881,-0.52223 0.70598,-0.52223 0.33849,0 0.59961,0.26111 0.27079,0.25145 0.27079,0.58994 0,1.07348 -1.73112,1.84717 -1.47967,0.65763 -2.88197,0.65763 z m -0.26112,-8.81032 q -1.17986,0 -1.96322,0.91875 -0.78335,0.90908 -1.17019,2.74657 l 2.96901,-1.41197 q 1.75045,-0.85105 2.49512,-1.47967 -0.83171,-0.77368 -2.33072,-0.77368 z"
       style="text-align:center;text-anchor:middle;stroke-width:0.74273556"
       id="path3109" />
    <path
       d="m 79.740414,228.65685 q -0.116052,1.42164 -0.116052,2.84328 0,3.22046 0.299802,4.86453 0.01934,0.1354 0.01934,0.22244 0,0.38684 -0.270789,0.63829 -0.270789,0.25144 -0.628618,0.25144 -0.599604,0 -0.880064,-0.87039 -0.696315,0.51257 -1.450656,0.77368 -0.74467,0.26112 -1.557037,0.26112 -2.001904,0 -3.317165,-1.3346 -1.353946,-1.36362 -1.353946,-3.50092 0,-2.58216 1.363617,-4.1392 1.373287,-1.55704 3.558941,-1.55704 1.121841,0 1.731116,0.34816 l 0.909077,0.6673 q 0.135395,-4.07151 0.319145,-5.48348 0.125723,-0.86072 0.880064,-0.86072 0.880064,0 0.880064,0.93809 0,1.34428 -0.386841,5.93802 z m -4.293941,0.25145 q -1.624734,0 -2.437101,0.9671 -0.812367,0.95743 -0.812367,2.89164 0,1.24756 0.880064,2.14697 0.889736,0.89941 2.079273,0.89941 0.812367,0 1.373288,-0.29981 0.328815,-0.17408 1.073485,-0.80269 0.145065,-0.12573 0.28046,-0.2998 l -0.02901,-1.67309 0.0097,-1.12184 0.01934,-1.14119 q -0.3675,-0.78335 -0.976775,-1.17019 -0.609275,-0.39651 -1.460327,-0.39651 z"
       style="text-align:center;text-anchor:middle;stroke-width:0.74273556"
       id="path3111" />
    <path
       d="m 90.368884,231.54849 q 0,0.69631 0.0097,2.08894 0.0097,1.39263 0.0097,2.08895 0,0.21276 0.02901,0.64796 0.03868,0.43519 0.03868,0.64796 0,0.41585 -0.28046,0.67697 -0.28046,0.27079 -0.686644,0.27079 -0.74467,0 -0.947761,-0.91875 -1.20888,0.62862 -2.785259,0.62862 -1.266906,0 -2.098615,-0.56092 -0.918749,-0.61895 -1.092827,-1.80849 -0.377171,-2.56282 -0.377171,-4.56473 0,-1.32493 0.290131,-3.01736 0.135395,-0.84138 0.918749,-0.84138 0.415854,0 0.696315,0.27079 0.28046,0.26112 0.28046,0.67697 0,0.44487 -0.145066,1.42164 -0.135394,0.97678 -0.135394,1.48934 0,1.61507 0.106381,2.76592 0.106381,1.15085 0.319144,1.84717 0.319144,0.17408 0.628618,0.27079 0.309473,0.087 0.609275,0.087 1.295919,0 2.736903,-0.41586 l -0.0097,-1.96322 -0.01934,-1.87618 q 0,-2.08895 0.18375,-3.62664 0.106381,-0.88974 0.938091,-0.88974 0.415854,0 0.696314,0.27079 0.28046,0.27079 0.261118,0.67698 z"
       style="text-align:center;text-anchor:middle;stroke-width:0.74273556"
       id="path3113" />
    <path
       d="m 97.283675,237.64124 q -2.185654,0 -3.539599,-1.09283 -1.479669,-1.20888 -1.479669,-3.38486 0,-2.51447 1.218551,-4.21657 1.324932,-1.85684 3.539599,-1.85684 1.605393,0 2.620851,0.54158 1.247562,0.6673 1.247562,2.05026 0,0.9671 -1.092825,1.76013 -0.483552,0.34815 -2.05026,1.08315 l -3.694336,1.75046 q 0.541578,0.8027 1.344274,1.20888 0.812367,0.40618 1.885852,0.40618 0.667302,0 1.566708,-0.25144 1.141183,-0.31915 1.469997,-0.83171 0.32882,-0.52224 0.70599,-0.52224 0.33848,0 0.5996,0.26112 0.27079,0.25145 0.27079,0.58993 0,1.07349 -1.73112,1.84717 -1.479664,0.65763 -2.881965,0.65763 z m -0.261118,-8.81031 q -1.179866,0 -1.96322,0.91875 -0.783354,0.90907 -1.170196,2.74657 l 2.969009,-1.41197 q 1.750457,-0.85105 2.495127,-1.47967 -0.831709,-0.77368 -2.33072,-0.77368 z"
       style="text-align:center;text-anchor:middle;stroke-width:0.74273556"
       id="path3115" />
    <path
       d="m 116.02614,228.95665 q -0.20309,0 -0.48355,-0.0193 -0.27079,-0.0193 -0.47388,-0.0193 -0.22243,0 -1.31526,0.14506 l 0.18375,5.71558 0.01,0.42553 0.01,0.49322 q 0.0387,2.11796 -1.01546,2.11796 -0.38684,0 -0.67697,-0.25145 -0.28046,-0.25144 -0.28046,-0.62861 0,-0.3675 0.029,-1.1025 0.029,-0.735 0.029,-1.1025 l -0.19342,-5.64789 q -0.70599,-0.029 -2.14697,-0.1644 -0.86073,-0.11606 -0.86073,-0.95744 0,-0.42552 0.26112,-0.70598 0.26112,-0.28046 0.6673,-0.28046 l 2.03092,0.16441 q 0,-0.49323 -0.0483,-1.31527 -0.0387,-0.8317 -0.0387,-1.1992 0,-0.40619 0.28046,-0.66731 0.28046,-0.27078 0.68665,-0.27078 0.87039,0 1.01545,1.42164 0.029,0.35783 0.029,0.86072 l -0.0193,0.56092 -0.01,0.5996 q 1.19921,-0.15473 1.37329,-0.15473 1.00579,0 1.31526,0.0967 0.58994,0.19342 0.58994,0.90908 0,0.42552 -0.27079,0.70598 -0.26112,0.27079 -0.67698,0.27079 z"
       style="text-align:center;text-anchor:middle;stroke-width:0.74273556"
       id="path3117" />
    <path
       d="m 122.50574,237.76697 q -1.62474,0 -2.79493,-1.19921 -1.30559,-1.33461 -1.37329,-3.58796 -0.058,-2.18565 1.1025,-3.84907 1.35395,-1.96322 3.7717,-1.96322 1.93421,0 2.93033,1.7698 0.79302,1.43131 0.76401,3.44289 -0.029,2.14697 -1.12184,3.66532 -1.23789,1.72145 -3.27848,1.72145 z m 0.58026,-8.63624 q -1.42164,-0.01 -2.21467,1.35394 -0.62861,1.09283 -0.62861,2.49513 0,1.4023 0.76401,2.18566 0.63829,0.64796 1.49901,0.64796 1.00579,0 1.73111,-0.735 0.82204,-0.81237 0.8704,-2.19533 0.13539,-3.74269 -2.02125,-3.75236 z"
       style="text-align:center;text-anchor:middle;stroke-width:0.74273556"
       id="path3119" />
    <path
       d="m 63.270638,262.5635 q -1.982563,0 -3.307495,-1.1992 -1.392629,-1.25724 -1.392629,-3.31717 0,-1.96322 1.30559,-4.05216 1.450655,-2.32105 3.26881,-2.32105 0.947762,0 2.117957,0.44486 1.479669,0.5706 1.479669,1.39263 0,0.3675 -0.241776,0.65763 -0.241776,0.28046 -0.599604,0.28046 -0.28046,0 -0.493223,-0.1644 -0.203092,-0.17408 -0.396513,-0.33849 -0.570591,-0.45454 -1.86651,-0.45454 -0.986445,0 -1.953549,1.76013 -0.880065,1.61506 -0.880065,2.79493 0,1.27658 0.870394,2.01158 0.812367,0.68664 2.088944,0.68664 0.580262,0 1.237893,-0.30947 l 1.12184,-0.59961 q 0.290131,-0.15473 0.415854,-0.15473 0.357829,0 0.618947,0.29013 0.261118,0.28046 0.261118,0.64796 0,0.70598 -1.48934,1.36361 -1.30559,0.58026 -2.166312,0.58026 z"
       style="text-align:center;text-anchor:middle;stroke-width:0.74273556"
       id="path3121" />
    <path
       d="m 72.699899,262.52482 q -1.624734,0 -2.79493,-1.19921 -1.30559,-1.3346 -1.373287,-3.58795 -0.05803,-2.18566 1.102498,-3.84908 1.353945,-1.96322 3.771705,-1.96322 1.934207,0 2.930324,1.7698 0.793025,1.43132 0.764012,3.44289 -0.02901,2.14697 -1.12184,3.66533 -1.237893,1.72144 -3.278482,1.72144 z m 0.580262,-8.63624 q -1.421642,-0.01 -2.214667,1.35395 -0.628618,1.09283 -0.628618,2.49513 0,1.4023 0.764012,2.18565 0.638289,0.64796 1.499011,0.64796 1.005788,0 1.731116,-0.735 0.822038,-0.81237 0.870393,-2.19532 0.135395,-3.7427 -2.021247,-3.75237 z"
       style="text-align:center;text-anchor:middle;stroke-width:0.74273556"
       id="path3123" />
    <path
       d="m 83.589487,262.29272 q -0.967103,0 -2.127628,-0.30948 l -0.01934,4.62276 q 0,0.42552 -0.270789,0.69631 -0.261118,0.27079 -0.676973,0.27079 -0.415854,0 -0.686643,-0.27079 -0.261118,-0.27079 -0.261118,-0.69631 l 0.02901,-3.86842 v -3.85874 q -0.02901,-2.11796 -0.145066,-3.85874 l -0.145065,-1.96323 q 0,-0.68664 0.251447,-1.16052 0.290131,-0.57059 0.84138,-0.57059 0.37717,0 0.628617,0.27079 0.261118,0.26112 0.261118,0.64796 0,0.087 -0.02901,0.31914 -0.04836,0.2998 -0.0677,0.55125 0.831709,-0.57059 1.605392,-0.85105 0.773683,-0.29013 1.479669,-0.29013 1.982562,0 2.901311,1.76013 0.725328,1.39263 0.725328,3.68466 0,2.08895 -1.121841,3.44289 -1.189537,1.43132 -3.1721,1.43132 z m 0.667302,-8.38479 q -0.889736,0 -1.605392,0.39651 -0.512565,0.28046 -1.295919,1.02513 0.125723,2.19532 0.125723,4.61308 1.054143,0.40619 2.108286,0.40619 1.20888,0 1.847168,-0.89941 0.551249,-0.78335 0.551249,-2.03092 0,-1.76013 -0.435196,-2.63052 -0.425526,-0.88006 -1.295919,-0.88006 z"
       style="text-align:center;text-anchor:middle;stroke-width:0.74273556"
       id="path3125" />
    <path
       d="m 98.511898,253.32766 -3.346179,7.23394 q -1.237893,2.64019 -1.895523,4.41966 l -0.638289,1.87618 q -0.251447,0.69632 -0.870393,0.69632 -0.406184,0 -0.705986,-0.27079 -0.290131,-0.26112 -0.290131,-0.65763 0,-0.9671 2.088944,-5.59953 l -3.462231,-6.66335 -0.435197,-0.70598 q -0.261118,-0.44487 -0.261118,-0.74467 0,-0.39651 0.299802,-0.69632 0.309473,-0.2998 0.686644,-0.2998 0.444867,0 0.686643,0.33849 1.644077,2.28236 3.529929,6.49894 l 1.431313,-3.33651 q 0.773683,-1.73112 1.48934,-2.97868 0.309473,-0.54158 0.812367,-0.54158 0.396513,0 0.696315,0.28046 0.309473,0.28046 0.309473,0.6673 0,0.21276 -0.125723,0.48355 z"
       style="text-align:center;text-anchor:middle;stroke-width:0.74273556"
       id="path3127" />
    <path
       d="m 107.93149,254.80733 q -0.0677,1.20888 -0.96711,1.20888 -0.83171,0 -0.83171,-0.95743 0,-0.18375 -0.029,-0.67697 l -0.029,-0.81237 q -1.52803,0.18375 -2.44677,0.86072 -0.86073,0.62862 -1.43132,1.89553 l 0.0193,5.29972 q 0,0.97678 -0.95743,0.97678 -0.85105,0 -0.85105,-0.97678 v -6.78906 q 0,-0.31915 0.0193,-0.95744 0.029,-0.63829 0.029,-0.95743 0,-0.97677 0.85105,-0.97677 0.94776,0 0.95743,1.60539 1.85684,-1.78914 4.11986,-1.78914 0.78335,0 1.1702,0.58993 0.38684,0.58993 0.38684,1.77947 0,0.50289 -0.01,0.67697 z"
       style="text-align:center;text-anchor:middle;stroke-width:0.74273556"
       id="path3129" />
    <path
       d="m 117.88298,257.78601 -0.22243,3.24947 q -0.058,1.93421 -0.39651,3.16243 -0.4352,1.56671 -1.39263,2.31138 -1.16053,0.8994 -3.35585,0.8994 -1.28625,0 -2.15664,-0.17407 -1.21855,-0.24178 -1.21855,-1.00579 0,-0.86073 0.84138,-0.86073 0.34815,0 1.16052,0.16441 0.81237,0.17408 1.79881,0.15474 1.85684,-0.029 2.56283,-1.79881 0.46421,-1.17987 0.49322,-3.62664 -0.52223,0.9671 -1.24756,1.45065 -0.71566,0.48355 -1.64408,0.48355 -1.75046,0 -2.85295,-1.18953 -1.09283,-1.19921 -1.09283,-3.10441 0,-2.61118 1.49901,-4.2069 1.54736,-1.64407 4.21657,-1.64407 0.89941,0 1.50868,0.2321 0.60928,0.23211 0.92842,0.69632 1.0348,0.029 1.0348,1.15085 0,0.68664 -0.20309,1.8375 -0.22243,1.3346 -0.26112,1.81815 z m -3.1044,-4.18756 q -1.8375,0 -2.84328,1.26691 -0.89941,1.14118 -0.89941,2.90131 0,1.4023 0.53191,2.10829 0.5319,0.70598 1.59572,0.70598 0.97677,0 1.89552,-1.1025 0.83171,-1.01546 0.94776,-2.01157 0.20309,-1.04447 0.4352,-3.27848 -0.38684,-0.29981 -0.8027,-0.44487 -0.41585,-0.14507 -0.86072,-0.14507 z"
       style="text-align:center;text-anchor:middle;stroke-width:0.74273556"
       id="path3131" />
    <path
       d="m 128.54047,262.55383 q -0.68665,0 -0.89941,-0.735 -0.22243,-0.79302 -0.40618,-2.25335 -0.17408,-1.4023 -0.17408,-2.3017 0,-0.25145 0.0193,-0.76402 0.029,-0.51256 0.029,-0.76401 0,-1.81815 -0.90908,-1.81815 -1.22822,0 -2.19532,1.11217 -0.49322,0.57059 -1.35395,2.17598 0,3.68466 -0.30947,4.36164 -0.27079,0.5996 -0.84138,0.5996 -0.39651,0 -0.69631,-0.27079 -0.29981,-0.27079 -0.29981,-0.65763 0,-0.13539 0.087,-0.42552 0.0774,-0.24178 0.10638,-1.41197 l 0.029,-1.43132 0.029,-7.10821 q 0.0677,-1.19921 0.0677,-1.61506 0,-0.49323 -0.0967,-0.92842 -0.087,-0.44487 -0.087,-0.91875 0,-0.40619 0.28046,-0.6673 0.28046,-0.27079 0.68664,-0.27079 0.79303,0 0.92842,0.85105 0.15474,0.93809 0.15474,1.69243 0,1.01546 -0.0677,2.11796 -0.058,1.05414 -0.0483,2.11795 l 0.01,0.85106 q 0.79302,-1.06382 1.69243,-1.58605 0.90908,-0.53191 1.92453,-0.53191 1.6054,0 2.205,1.04447 0.42553,0.735 0.48355,2.47579 l 0.0774,1.84716 0.19342,2.01158 q 0.1354,1.13151 0.32882,1.99223 0.0387,0.16441 0.0387,0.28046 0,0.39652 -0.29013,0.65763 -0.29013,0.27079 -0.69631,0.27079 z"
       style="text-align:center;text-anchor:middle;stroke-width:0.74273556"
       id="path3133" />
    <path
       d="m 138.36624,253.71451 q -0.20309,0 -0.48355,-0.0194 -0.27079,-0.0193 -0.47388,-0.0193 -0.22244,0 -1.31526,0.14507 l 0.18375,5.71558 0.01,0.42553 0.01,0.49322 q 0.0387,2.11796 -1.01546,2.11796 -0.38684,0 -0.67697,-0.25145 -0.28046,-0.25145 -0.28046,-0.62862 0,-0.3675 0.029,-1.1025 0.029,-0.735 0.029,-1.1025 l -0.19342,-5.64788 q -0.70598,-0.029 -2.14697,-0.16441 -0.86072,-0.11605 -0.86072,-0.95743 0,-0.42553 0.26112,-0.70599 0.26111,-0.28046 0.6673,-0.28046 l 2.03092,0.16441 q 0,-0.49322 -0.0484,-1.31526 -0.0387,-0.83171 -0.0387,-1.19921 0,-0.40618 0.28046,-0.6673 0.28046,-0.27079 0.68664,-0.27079 0.87039,0 1.01546,1.42164 0.029,0.35783 0.029,0.86072 l -0.0193,0.56092 -0.01,0.59961 q 1.19921,-0.15474 1.37329,-0.15474 1.00578,0 1.31526,0.0967 0.58993,0.19342 0.58993,0.90908 0,0.42553 -0.27079,0.70599 -0.26112,0.27079 -0.67697,0.27079 z"
       style="text-align:center;text-anchor:middle;stroke-width:0.74273556"
       id="path3135" />
  </g>
  <g
     aria-label="["
     style="font-style:normal;font-variant:normal;font-weight:normal;font-stretch:normal;font-size:96px;line-height:1.25;font-family:'comic sans';-inkscape-font-specification:'comic sans';letter-spacing:0px;word-spacing:0px;fill:#000000;fill-opacity:1;stroke:none"
     id="text2924">
    <path
       d="m 58.025131,226.30568 h -24.375 v -91.3125 h 24.375 v 6.70312 h -16.21875 v 77.90625 h 16.21875 z"
       style=""
       id="path3064" />
  </g>
  <g
     aria-label="]"
     style="font-style:normal;font-variant:normal;font-weight:normal;font-stretch:normal;font-size:96px;line-height:1.25;font-family:'comic sans';-inkscape-font-specification:'comic sans';letter-spacing:0px;word-spacing:0px;fill:#000000;fill-opacity:1;stroke:none"
     id="text2928">
    <path
       d="m 206.13045,226.75462 h -24.375 v -6.70312 h 16.21875 v -77.90625 h -16.21875 v -6.70313 h 24.375 z"
       style=""
       id="path3138" />
  </g>
</svg>
