<?xml version="1.0" encoding="UTF-8" standalone="no"?>
<svg
   xmlns:dc="http://purl.org/dc/elements/1.1/"
   xmlns:cc="http://creativecommons.org/ns#"
   xmlns:rdf="http://www.w3.org/1999/02/22-rdf-syntax-ns#"
   xmlns:svg="http://www.w3.org/2000/svg"
   xmlns="http://www.w3.org/2000/svg"
   xmlns:sodipodi="http://sodipodi.sourceforge.net/DTD/sodipodi-0.dtd"
   xmlns:inkscape="http://www.inkscape.org/namespaces/inkscape"
   viewBox="0.0 0.0 348.0 348.0"
   fill="none"
   version="1.1"
   id="svg1377"
   sodipodi:docname="example.svg"
   inkscape:version="0.92.2 (5c3e80d, 2017-08-06)">
  <metadata
     id="metadata1383">
    <rdf:RDF>
      <cc:Work
         rdf:about="">
        <dc:format>image/svg+xml</dc:format>
        <dc:type
           rdf:resource="http://purl.org/dc/dcmitype/StillImage" />
        <dc:title></dc:title>
      </cc:Work>
    </rdf:RDF>
  </metadata>
  <defs
     id="defs1381" />
  <sodipodi:namedview
     pagecolor="#ffffff"
     bordercolor="#666666"
     borderopacity="1"
     objecttolerance="10"
     gridtolerance="10"
     guidetolerance="10"
     inkscape:pageopacity="0"
     inkscape:pageshadow="2"
     inkscape:window-width="640"
     inkscape:window-height="604"
     id="namedview1379"
     showgrid="false"
     inkscape:zoom="0.67816092"
     inkscape:cx="174"
     inkscape:cy="174"
     inkscape:window-x="513"
     inkscape:window-y="67"
     inkscape:window-maximized="0"
     inkscape:current-layer="svg1377" />
  <path
     d="M5.079 5.776h336.913v337.67H5.08z"
     stroke-width="2"
     stroke="#000"
     id="path1373" />
  <path
     d="M282.734 40.554c0-8.376 6.966-15.165 15.56-15.165 4.126 0 8.084 1.597 11.001 4.441 2.918 2.844 4.558 6.702 4.558 10.724 0 8.376-6.966 15.165-15.56 15.165-8.593 0-15.559-6.79-15.559-15.165z"
     stroke-width="2"
     stroke="#000"
     id="path1375" />
  <g
     aria-label="[Example]"
     style="font-style:normal;font-variant:normal;font-weight:normal;font-stretch:normal;font-size:26.66666603px;line-height:1.25;font-family:pokemon-font;-inkscape-font-specification:pokemon-font;letter-spacing:0px;word-spacing:0px;fill:#000000;fill-opacity:1;stroke:none"
     id="text1387">
    <path
       d="m 55.327681,71.039546 h 10 v 3.333334 h -6.666667 v 16.666666 h 6.666667 v 3.333333 h -10 z"
       style=""
       id="path1416" />
    <path
       d="M 75.327681,71.039546 H 98.661013 V 74.37288 H 78.661014 v 6.666666 H 95.32768 v 3.333333 H 78.661014 v 6.666667 h 19.999999 v 3.333333 H 75.327681 Z"
       style=""
       id="path1418" />
    <path
       d="m 118.66101,91.039546 h 6.66667 v 3.333333 h -6.66667 z m -13.33333,0 h 3.33333 v 3.333333 h -3.33333 z m 3.33333,-3.333333 h 3.33334 v 3.333333 h -3.33334 z m -6.66666,-10 h 6.66666 v 3.333333 h -6.66666 z m 6.66666,3.333333 h 3.33334 v 3.333333 h -3.33334 z m 3.33334,3.333333 h 3.33333 v 3.333334 h -3.33333 z m 3.33333,3.333334 h 3.33333 v 3.333333 h -3.33333 z m 0,-6.666667 h 3.33333 v 3.333333 h -3.33333 z m 3.33333,-3.333333 h 3.33334 v 3.333333 h -3.33334 z"
       style=""
       id="path1420" />
    <path
       d="m 131.99435,91.039546 h 10 v -3.333333 h -10 v -3.333334 h 10 v -3.333333 h 3.33333 v 10 h 3.33333 v 3.333333 h -16.66666 z m -3.33334,-3.333333 h 3.33334 v 3.333333 h -3.33334 z m 3.33334,-10 h 10 v 3.333333 h -10 z"
       style=""
       id="path1422" />
    <path
       d="m 155.32768,77.706213 h 10 v 3.333333 h -6.66667 v 13.333333 h -3.33333 z m 10,3.333333 h 3.33333 v 13.333333 h -3.33333 z m 10,0 h 3.33333 v 13.333333 h -3.33333 z m -6.66667,-3.333333 h 6.66667 v 3.333333 h -6.66667 z"
       style=""
       id="path1424" />
    <path
       d="m 181.99434,77.706213 h 16.66667 v 3.333333 h -13.33333 v 6.666667 h 13.33333 v 3.333333 h -13.33333 v 6.666666 h -3.33334 z m 16.66667,3.333333 h 3.33333 v 6.666667 h -3.33333 z"
       style=""
       id="path1426" />
    <path
       d="m 218.66101,71.039546 h 3.33334 v 23.333333 h -3.33334 z"
       style=""
       id="path1428" />
    <path
       d="m 235.32767,81.039546 h 3.33333 v 3.333333 h 13.33334 v -3.333333 h 3.33333 v 6.666667 H 238.661 v 3.333333 h -3.33333 z m 3.33333,10 h 16.66667 v 3.333333 H 238.661 Z m 0,-13.333333 h 13.33334 v 3.333333 H 238.661 Z"
       style=""
       id="path1430" />
    <path
       d="m 268.66101,91.039546 h 6.66667 V 74.37288 h -6.66667 v -3.333334 h 10 v 23.333333 h -10 z"
       style=""
       id="path1432" />
  </g>
  <g
     aria-label="[Example]"
     style="font-style:normal;font-variant:normal;font-weight:normal;font-stretch:normal;font-size:26.66666603px;line-height:1.25;font-family:pokemon-font;-inkscape-font-specification:pokemon-font;letter-spacing:0px;word-spacing:0px;fill:#000000;fill-opacity:1;stroke:none"
     id="text1391">
    <path
       d="m 55.327689,131.49717 h 9.999999 v 3.33334 h -6.666666 v 16.66666 h 6.666666 v 3.33334 h -9.999999 z"
       style=""
       id="path1397" />
    <path
       d="m 75.327688,131.49717 h 23.333333 v 3.33334 h -20 v 6.66666 h 16.666667 v 3.33334 H 78.661021 v 6.66666 h 20 v 3.33334 H 75.327688 Z"
       style=""
       id="path1399" />
    <path
       d="m 118.66102,151.49717 h 6.66667 v 3.33334 h -6.66667 z m -13.33333,0 h 3.33333 v 3.33334 h -3.33333 z m 3.33333,-3.33333 h 3.33333 v 3.33333 h -3.33333 z m -6.66667,-10 h 6.66667 v 3.33333 h -6.66667 z m 6.66667,3.33333 h 3.33333 v 3.33334 h -3.33333 z m 3.33333,3.33334 h 3.33334 v 3.33333 h -3.33334 z m 3.33334,3.33333 h 3.33333 v 3.33333 h -3.33333 z m 0,-6.66667 h 3.33333 v 3.33334 h -3.33333 z m 3.33333,-3.33333 h 3.33333 v 3.33333 h -3.33333 z"
       style=""
       id="path1401" />
    <path
       d="m 131.99436,151.49717 h 10 v -3.33333 h -10 v -3.33333 h 10 v -3.33334 h 3.33333 v 10 h 3.33333 v 3.33334 h -16.66666 z m -3.33334,-3.33333 h 3.33334 v 3.33333 h -3.33334 z m 3.33334,-10 h 10 v 3.33333 h -10 z"
       style=""
       id="path1403" />
    <path
       d="m 155.32769,138.16384 h 10 v 3.33333 h -6.66667 v 13.33334 h -3.33333 z m 10,3.33333 h 3.33333 v 13.33334 h -3.33333 z m 10,0 h 3.33333 v 13.33334 h -3.33333 z m -6.66667,-3.33333 h 6.66667 v 3.33333 h -6.66667 z"
       style=""
       id="path1405" />
    <path
       d="m 181.99435,138.16384 h 16.66667 v 3.33333 h -13.33334 v 6.66667 h 13.33334 v 3.33333 h -13.33334 v 6.66667 h -3.33333 z m 16.66667,3.33333 h 3.33333 v 6.66667 h -3.33333 z"
       style=""
       id="path1407" />
    <path
       d="m 218.66102,131.49717 h 3.33334 v 23.33334 h -3.33334 z"
       style=""
       id="path1409" />
    <path
       d="m 235.32768,141.49717 h 3.33333 v 3.33334 h 13.33333 v -3.33334 h 3.33334 v 6.66667 h -16.66667 v 3.33333 h -3.33333 z m 3.33333,10 h 16.66667 v 3.33334 h -16.66667 z m 0,-13.33333 h 13.33333 v 3.33333 h -13.33333 z"
       style=""
       id="path1411" />
    <path
       d="m 268.66102,151.49717 h 6.66666 v -16.66666 h -6.66666 v -3.33334 h 10 v 23.33334 h -10 z"
       style=""
       id="path1413" />
  </g>
  <g
     aria-label="[Example]"
     style="font-style:normal;font-variant:normal;font-weight:normal;font-stretch:normal;font-size:26.66666603px;line-height:1.25;font-family:pokemon-font;-inkscape-font-specification:pokemon-font;letter-spacing:0px;word-spacing:0px;fill:#000000;fill-opacity:1;stroke:none"
     id="text1395">
    <path
       d="m 58.276831,194.90396 h 10 v 3.33333 h -6.666667 v 16.66667 h 6.666667 v 3.33333 h -10 z"
       style=""
       id="path1435" />
    <path
       d="m 78.276831,194.90396 h 23.333329 v 3.33333 H 81.610164 v 6.66667 H 98.27683 v 3.33333 H 81.610164 v 6.66667 h 19.999996 v 3.33333 H 78.276831 Z"
       style=""
       id="path1437" />
    <path
       d="m 121.61016,214.90396 h 6.66667 v 3.33333 h -6.66667 z m -13.33333,0 h 3.33333 v 3.33333 h -3.33333 z m 3.33333,-3.33334 h 3.33334 v 3.33334 h -3.33334 z m -6.66666,-10 h 6.66666 v 3.33334 h -6.66666 z m 6.66666,3.33334 h 3.33334 v 3.33333 h -3.33334 z m 3.33334,3.33333 h 3.33333 v 3.33333 h -3.33333 z m 3.33333,3.33333 h 3.33333 v 3.33334 h -3.33333 z m 0,-6.66666 h 3.33333 v 3.33333 h -3.33333 z m 3.33333,-3.33334 h 3.33334 v 3.33334 h -3.33334 z"
       style=""
       id="path1439" />
    <path
       d="m 134.9435,214.90396 h 10 v -3.33334 h -10 v -3.33333 h 10 v -3.33333 h 3.33333 v 10 h 3.33333 v 3.33333 H 134.9435 Z m -3.33334,-3.33334 h 3.33334 v 3.33334 h -3.33334 z m 3.33334,-10 h 10 v 3.33334 h -10 z"
       style=""
       id="path1441" />
    <path
       d="m 158.27683,201.57062 h 10 v 3.33334 h -6.66667 v 13.33333 h -3.33333 z m 10,3.33334 h 3.33333 v 13.33333 h -3.33333 z m 10,0 h 3.33333 v 13.33333 h -3.33333 z m -6.66667,-3.33334 h 6.66667 v 3.33334 h -6.66667 z"
       style=""
       id="path1443" />
    <path
       d="m 184.94349,201.57062 h 16.66667 v 3.33334 h -13.33333 v 6.66666 h 13.33333 v 3.33334 h -13.33333 v 6.66666 h -3.33334 z m 16.66667,3.33334 h 3.33333 v 6.66666 h -3.33333 z"
       style=""
       id="path1445" />
    <path
       d="m 221.61016,194.90396 h 3.33334 v 23.33333 h -3.33334 z"
       style=""
       id="path1447" />
    <path
       d="m 238.27682,204.90396 h 3.33333 v 3.33333 h 13.33334 v -3.33333 h 3.33333 v 6.66666 h -16.66667 v 3.33334 h -3.33333 z m 3.33333,10 h 16.66667 v 3.33333 h -16.66667 z m 0,-13.33334 h 13.33334 v 3.33334 h -13.33334 z"
       style=""
       id="path1449" />
    <path
       d="m 271.61016,214.90396 h 6.66667 v -16.66667 h -6.66667 v -3.33333 h 10 v 23.33333 h -10 z"
       style=""
       id="path1451" />
  </g>
</svg>
